<?xml version="1.0" standalone="no"?>
<!DOCTYPE svg PUBLIC "-//W3C//DTD SVG 20010904//EN"
 "http://www.w3.org/TR/2001/REC-SVG-20010904/DTD/svg10.dtd">
<svg version="1.0" xmlns="http://www.w3.org/2000/svg"
 width="1280.000000pt" height="1108.000000pt" viewBox="0 0 1280.000000 1108.000000"
 preserveAspectRatio="xMidYMid meet">
<g transform="translate(0.000000,1108.000000) scale(0.100000,-0.100000)"
fill="#000000" stroke="none">
<path d="M6576 11036 c-20 -25 -43 -46 -49 -46 -7 0 -20 -9 -30 -20 -14 -16
-25 -19 -51 -15 -37 7 -49 -5 -101 -110 -23 -47 -36 -61 -55 -63 -52 -6 -81
-23 -74 -44 4 -12 -1 -28 -14 -41 -11 -12 -22 -35 -26 -50 -7 -28 -48 -53 -67
-41 -15 9 -129 -95 -135 -125 -3 -14 -12 -38 -20 -53 -12 -23 -13 -35 -3 -67
10 -33 9 -52 -5 -108 -10 -37 -22 -73 -28 -80 -24 -29 -225 -7 -282 31 -35 22
-48 20 -91 -14 -56 -45 -84 -40 -136 21 -24 29 -58 58 -76 66 -18 7 -33 18
-33 24 0 16 -42 0 -68 -27 -19 -20 -33 -24 -77 -24 -52 0 -56 -2 -91 -44 -20
-25 -45 -46 -54 -49 -11 -3 -21 -19 -25 -38 -4 -19 -13 -41 -20 -49 -7 -8 -16
-29 -20 -47 -7 -37 -17 -46 -69 -64 -21 -8 -46 -24 -54 -37 -18 -28 -50 -23
-95 14 -40 33 -90 33 -105 -1 -16 -35 -14 -86 3 -109 10 -13 15 -43 15 -83 0
-70 10 -54 -122 -194 -39 -41 -46 -78 -21 -99 18 -14 20 -26 18 -107 -2 -50
-7 -98 -12 -107 -5 -10 -33 -34 -63 -54 -29 -21 -55 -42 -57 -48 -7 -22 181
-72 193 -52 3 5 16 8 29 8 13 0 27 5 30 10 9 15 42 12 69 -5 12 -8 45 -18 72
-21 27 -4 62 -13 77 -21 24 -12 28 -19 25 -50 -2 -26 -10 -41 -28 -52 -14 -9
-40 -25 -58 -36 -22 -14 -36 -32 -43 -60 -12 -44 -35 -75 -56 -75 -18 0 -17
-19 3 -41 14 -15 13 -18 -13 -36 -64 -44 -184 -64 -215 -36 -17 15 -20 13 -52
-22 -23 -25 -39 -35 -48 -29 -7 5 -33 11 -58 15 -25 4 -55 10 -66 14 -16 5
-31 -1 -56 -23 -19 -17 -47 -34 -62 -38 -35 -8 -43 -29 -22 -53 20 -22 20 -35
2 -64 -8 -12 -17 -37 -21 -56 -4 -18 -20 -52 -36 -76 -22 -33 -37 -44 -64 -48
-38 -6 -96 -48 -107 -78 -9 -25 -70 -35 -110 -18 -28 11 -36 10 -82 -13 -28
-14 -63 -31 -78 -37 -19 -7 -28 -18 -28 -33 -1 -32 -18 -58 -72 -107 -31 -28
-48 -52 -48 -67 0 -12 -8 -30 -17 -40 -17 -17 -22 -102 -22 -378 0 -21 7 -51
15 -68 20 -38 21 -96 3 -133 -8 -16 -33 -42 -57 -58 -24 -16 -50 -43 -57 -61
-8 -17 -24 -53 -36 -81 -16 -35 -21 -66 -20 -102 2 -45 -1 -56 -23 -76 -14
-13 -26 -34 -26 -45 0 -12 -13 -40 -29 -64 -22 -33 -27 -47 -19 -61 6 -12 16
-16 28 -12 10 3 21 1 25 -5 9 -14 78 -13 93 2 18 18 51 -18 58 -64 5 -28 11
-38 25 -38 10 0 26 -12 36 -27 9 -16 25 -38 36 -49 18 -21 18 -22 -3 -42 -18
-16 -20 -24 -11 -40 6 -12 11 -32 11 -46 0 -14 5 -28 10 -31 6 -3 10 -15 10
-27 0 -15 -4 -18 -17 -13 -36 15 -97 5 -118 -18 -11 -12 -32 -29 -47 -36 -24
-13 -30 -12 -46 2 -10 10 -28 17 -41 17 -39 0 -89 28 -105 57 -16 32 -12 44
22 62 19 10 23 19 20 49 -3 32 0 37 20 40 12 2 22 6 22 8 0 17 -37 73 -61 92
-16 13 -29 32 -29 43 0 23 -13 25 -31 3 -9 -11 -23 -14 -46 -11 -28 5 -40 0
-79 -34 -44 -38 -49 -40 -105 -37 -37 2 -63 -2 -71 -10 -6 -6 -22 -12 -34 -12
-17 0 -23 -8 -29 -37 -5 -27 -22 -52 -64 -92 -31 -31 -67 -71 -80 -89 -13 -18
-34 -38 -48 -43 -36 -13 -104 5 -128 35 -26 32 -43 32 -105 1 -27 -14 -59 -25
-70 -25 -11 0 -23 -8 -27 -17 -3 -10 -17 -28 -31 -40 l-26 -22 23 -32 c13 -18
30 -51 36 -73 9 -29 19 -42 36 -47 23 -6 28 -30 8 -38 -6 -2 -14 -14 -19 -27
-7 -17 -22 -27 -54 -35 -27 -7 -57 -24 -77 -45 -56 -58 -100 -38 -79 36 11 39
-1 63 -22 42 -7 -7 -23 -12 -36 -12 -13 0 -37 -10 -52 -22 -16 -13 -41 -31
-55 -41 -14 -10 -48 -47 -76 -82 -65 -83 -98 -98 -191 -89 -69 7 -73 9 -118
55 -25 27 -52 49 -60 49 -7 0 -24 9 -36 21 -21 19 -24 20 -52 5 -17 -9 -37
-16 -45 -16 -8 0 -22 -9 -31 -19 -11 -12 -42 -23 -80 -30 -94 -16 -103 -15
-114 18 -6 16 -20 35 -32 41 -19 10 -24 9 -37 -9 -13 -19 -21 -21 -63 -15 -42
6 -49 4 -60 -15 -6 -12 -8 -31 -5 -42 14 -44 -48 -69 -64 -26 -16 42 -34 49
-111 43 -39 -3 -76 -8 -81 -12 -6 -3 -20 3 -32 14 -12 11 -38 22 -58 26 -44 8
-49 -1 -49 -84 0 -49 4 -64 27 -90 25 -30 26 -37 24 -125 -2 -85 0 -95 19
-105 16 -9 20 -21 20 -63 0 -53 100 -463 140 -574 12 -32 30 -89 42 -128 56
-195 126 -377 152 -400 13 -11 28 -38 34 -60 6 -23 25 -54 42 -70 36 -35 39
-73 10 -130 -23 -45 -26 -117 -6 -134 19 -16 46 -102 46 -146 0 -20 7 -47 16
-61 16 -23 16 -26 -5 -48 -21 -23 -22 -25 -10 -187 24 -351 25 -325 -7 -370
-16 -23 -37 -45 -49 -49 -11 -5 -51 -36 -88 -69 -91 -81 -114 -96 -130 -83 -8
7 -29 7 -62 1 -44 -8 -75 -20 -214 -87 -86 -41 -220 -196 -261 -302 -12 -30
-34 -68 -50 -85 -15 -16 -48 -68 -72 -115 -40 -77 -44 -91 -42 -151 0 -37 4
-71 8 -77 3 -5 30 -13 59 -17 28 -3 61 -10 72 -15 11 -5 45 -16 76 -25 42 -12
59 -22 67 -41 10 -20 16 -23 30 -15 10 5 33 6 52 2 29 -6 35 -11 35 -32 0 -31
68 -99 99 -99 13 0 41 -19 65 -44 41 -42 45 -51 59 -133 20 -122 19 -149 -6
-176 -12 -13 -22 -32 -22 -42 0 -10 -8 -27 -17 -37 -14 -16 -15 -23 -5 -38 16
-26 15 -50 -3 -70 -23 -25 -21 -71 6 -117 l24 -42 -20 -37 c-15 -28 -34 -43
-72 -61 -54 -23 -65 -41 -38 -63 16 -13 20 -136 4 -146 -15 -9 -11 -140 5
-154 8 -6 16 -30 18 -53 2 -34 7 -42 27 -47 16 -4 28 -16 34 -35 14 -41 30
-52 56 -36 11 7 8 17 -12 52 -20 34 -23 49 -16 68 8 19 4 32 -16 62 -39 60
-36 68 40 106 107 54 144 66 160 53 8 -7 15 -18 15 -25 0 -8 22 -14 65 -17 81
-5 90 -13 70 -61 -8 -20 -15 -39 -15 -42 0 -3 22 -5 48 -4 26 1 57 -3 69 -9
12 -7 26 -12 31 -12 22 0 122 93 151 140 17 28 45 59 62 68 70 38 195 114 208
127 11 11 11 22 -3 68 -21 73 -20 100 5 123 11 10 27 33 34 51 22 52 54 66
179 74 63 5 128 15 150 24 28 12 50 14 80 9 22 -4 55 -9 71 -10 17 -1 45 -6
63 -9 26 -6 40 -2 70 19 40 28 62 32 78 16 6 -6 21 -6 41 -1 23 7 37 5 50 -5
35 -26 68 -15 176 58 32 21 72 41 90 45 18 3 43 11 57 18 30 15 146 13 176 -3
11 -6 26 -18 34 -27 7 -8 44 -25 82 -36 77 -24 140 -21 183 7 23 15 28 15 67
-1 28 -12 81 -20 150 -23 106 -4 106 -4 110 19 2 20 9 24 45 27 34 3 42 0 48
-17 9 -29 123 -48 164 -26 37 19 90 19 116 1 11 -7 33 -16 48 -20 16 -4 48
-26 72 -50 54 -55 73 -61 136 -46 42 10 53 10 74 -4 30 -20 53 -20 97 -1 43
17 58 6 58 -42 0 -23 5 -33 15 -33 8 0 32 -15 52 -34 56 -49 85 -53 144 -16
58 35 121 40 200 14 43 -14 50 -21 59 -53 5 -21 20 -47 33 -60 21 -19 27 -20
51 -9 21 9 32 9 47 0 10 -7 30 -12 44 -12 14 0 37 -7 50 -16 24 -16 26 -15 60
15 34 29 40 31 119 31 46 0 103 2 127 5 68 9 73 1 79 -117 5 -101 6 -103 30
-106 40 -5 52 -28 35 -70 -8 -19 -15 -43 -15 -54 0 -19 4 -20 58 -13 31 4 80
8 107 9 28 0 56 5 63 9 21 14 81 -2 92 -24 15 -26 32 -14 24 17 -9 37 2 57 24
45 13 -7 22 -7 30 1 9 9 20 4 46 -21 32 -31 36 -32 68 -21 30 11 42 10 81 -5
69 -26 71 -52 8 -145 -17 -25 -31 -48 -31 -52 0 -8 83 -88 92 -88 4 0 14 16
23 35 18 37 50 74 81 91 17 10 18 15 6 46 -8 23 -10 55 -6 91 6 48 10 57 34
67 43 18 78 -4 93 -57 11 -43 20 -52 32 -33 3 6 13 10 22 10 15 0 15 -12 -2
-52 -6 -15 -1 -18 32 -18 21 0 56 9 78 20 22 11 47 20 56 20 22 0 109 86 109
109 0 28 113 117 133 104 5 -3 7 -29 4 -59 -5 -46 -3 -54 13 -59 27 -8 97
-100 105 -135 4 -17 9 -30 11 -30 3 0 34 23 70 50 72 55 101 61 162 33 20 -10
57 -20 81 -23 25 -3 47 -12 51 -20 4 -8 22 -67 40 -130 17 -63 34 -117 37
-120 2 -3 11 3 18 14 22 29 45 13 45 -30 0 -37 0 -37 20 -19 18 16 20 27 15
69 -5 43 -2 61 23 116 41 88 105 141 189 154 35 5 44 3 57 -15 21 -31 49 -17
97 47 22 30 43 54 48 54 4 0 13 11 19 26 11 22 17 25 60 22 43 -3 47 -5 47
-29 0 -14 12 -43 28 -65 15 -22 27 -47 27 -55 0 -7 14 -22 31 -31 29 -17 30
-20 28 -85 -2 -76 17 -140 43 -149 25 -8 35 -30 43 -102 l7 -63 32 20 c67 44
73 45 131 31 30 -7 58 -11 61 -7 3 3 12 34 20 70 8 36 21 73 29 83 13 18 14
18 34 0 24 -22 48 -16 53 15 2 12 10 25 18 30 8 4 33 16 55 27 22 10 55 27 72
36 18 10 37 15 43 11 13 -8 13 -72 0 -80 -17 -11 -11 -34 19 -67 23 -26 32
-30 43 -21 8 7 32 10 61 7 45 -5 47 -4 61 29 17 41 47 54 77 34 26 -19 76 -7
101 23 19 24 32 25 88 5 39 -14 45 -14 60 0 10 9 25 13 34 9 11 -4 22 0 30 12
13 17 16 17 57 -11 24 -15 76 -59 115 -97 62 -60 73 -75 79 -114 5 -34 2 -52
-10 -71 -17 -25 -17 -26 36 -79 38 -38 61 -54 80 -54 31 0 52 -21 43 -44 -5
-12 0 -16 20 -16 15 0 40 -7 57 -15 28 -15 32 -14 70 7 38 21 40 24 34 58 -5
30 -2 40 20 60 16 15 23 30 20 41 -4 10 -2 27 4 37 13 25 -14 87 -45 101 -13
6 -26 22 -30 37 -5 21 -2 31 17 45 22 16 22 19 8 36 -33 36 -51 90 -40 112 15
27 15 28 -18 34 -33 7 -48 36 -32 65 7 14 5 21 -10 30 -23 14 -26 52 -4 52 12
0 11 6 -7 30 -17 23 -19 33 -10 42 7 7 12 27 12 46 0 33 1 34 29 29 29 -6 30
-5 33 36 3 39 5 42 32 42 25 1 32 7 48 45 l19 44 -22 17 c-26 19 -18 39 17 39
24 0 24 2 18 49 -6 48 -5 50 25 65 17 9 31 23 31 31 0 8 17 40 37 70 34 50 40
55 75 55 40 0 44 6 50 74 2 22 12 34 37 48 43 24 93 77 85 90 -3 5 1 17 10 27
9 10 14 25 11 34 -4 8 -2 18 4 22 6 3 11 21 11 39 0 42 32 75 55 56 13 -10 31
-10 98 5 45 9 91 22 101 28 16 8 24 5 40 -16 12 -14 34 -29 49 -33 16 -3 38
-19 49 -35 41 -55 118 -20 118 52 0 19 8 34 26 46 14 10 41 33 59 50 44 42 95
46 119 8 14 -22 22 -25 50 -20 19 4 55 0 85 -9 32 -9 69 -13 100 -9 34 4 58 1
85 -12 30 -15 41 -15 66 -5 38 16 44 37 30 104 -12 57 -31 72 -76 60 -31 -8
-48 19 -36 56 6 17 8 52 5 78 -5 47 -6 49 -64 75 -44 20 -62 35 -74 61 -17 36
-14 56 9 56 21 0 30 123 12 163 -23 53 -27 119 -8 140 20 22 7 49 -29 57 -34
8 -36 37 -4 52 15 6 33 24 41 40 10 19 21 27 36 25 32 -3 33 19 1 26 -15 4
-45 22 -65 42 -32 30 -38 43 -38 76 0 31 -9 53 -40 96 -22 31 -40 64 -40 73 0
9 14 21 35 29 19 7 47 28 61 46 25 33 26 37 13 87 -8 35 -24 65 -46 88 -28 29
-33 40 -28 67 5 31 4 32 -48 47 -44 13 -59 23 -81 56 -14 22 -30 40 -35 40
-22 0 -41 34 -41 73 -1 54 -27 103 -71 130 -88 55 -99 63 -99 79 0 25 31 38
74 31 l36 -6 0 50 c0 54 9 66 53 77 32 8 35 26 7 51 -26 24 -25 33 10 79 18
24 30 52 30 70 0 52 11 60 75 52 31 -3 70 -13 85 -21 44 -23 60 -19 103 27 33
34 42 39 56 30 9 -7 27 -17 41 -23 14 -6 38 -17 53 -25 16 -8 34 -14 41 -14
23 0 64 -55 71 -93 4 -21 19 -52 32 -68 20 -24 33 -29 67 -29 34 0 46 -6 68
-30 29 -33 54 -38 84 -15 26 20 51 19 81 -5 42 -33 148 -20 176 21 11 15 21
18 41 13 21 -5 27 -2 35 19 11 30 39 47 74 47 29 0 57 29 57 58 0 25 30 47 77
57 33 6 47 24 117 141 37 63 44 88 26 99 -36 23 17 33 79 15 29 -8 36 -6 52
13 10 12 18 32 19 45 0 26 16 28 41 6 16 -15 20 -15 41 0 12 9 37 16 55 16 18
0 33 2 33 4 0 1 -5 18 -11 35 -10 29 -9 37 11 63 17 23 19 32 10 38 -9 6 -11
21 -6 49 8 51 -4 76 -47 97 -18 9 -42 26 -55 37 l-22 21 -16 -22 c-24 -34 -42
-27 -51 21 -7 36 -13 42 -36 45 -15 2 -32 11 -39 21 -7 10 -28 26 -46 35 -18
9 -38 29 -45 44 -6 15 -18 33 -25 40 -30 33 -44 73 -33 103 8 23 7 29 -3 29
-8 0 -16 9 -19 21 -7 26 8 69 24 69 25 0 79 33 79 49 -1 9 -13 31 -29 48 l-27
33 -53 -16 c-59 -17 -63 -15 -89 37 -14 28 -23 35 -54 37 -21 2 -38 7 -38 12
0 5 -13 7 -30 4 -27 -6 -31 -3 -45 30 -13 29 -20 36 -44 36 -15 0 -40 9 -55
21 -25 20 -28 20 -60 5 -19 -9 -54 -16 -79 -16 -28 0 -59 -8 -81 -21 -22 -13
-43 -18 -56 -14 -12 4 -27 1 -35 -5 -18 -15 -66 -5 -99 21 -17 13 -37 19 -58
17 -31 -3 -33 -1 -36 31 -2 19 1 44 6 55 6 12 13 29 16 39 3 9 15 17 27 17 16
0 20 5 16 20 -5 20 16 75 34 85 5 4 9 28 9 56 0 40 5 53 25 71 28 25 32 50 10
68 -21 17 -19 46 6 79 15 21 19 35 13 52 -4 13 -7 34 -5 45 2 19 -4 22 -41 26
-24 3 -51 1 -61 -4 -11 -6 -30 -7 -44 -3 -19 4 -24 11 -21 32 2 22 -2 27 -22
30 -33 4 -42 5 -64 1 -12 -2 -25 7 -36 27 -15 27 -22 30 -79 35 -45 4 -65 10
-72 23 -6 9 -19 17 -30 17 -12 0 -27 12 -37 30 -9 17 -25 33 -35 36 -10 3 -25
16 -33 29 -11 17 -27 25 -52 27 -34 3 -37 6 -42 37 -5 31 -9 35 -50 45 l-45
11 -3 74 c-2 56 -7 78 -20 87 -16 11 -15 15 6 44 22 29 23 33 8 56 -9 13 -21
24 -26 24 -22 0 -41 33 -35 61 4 18 -1 44 -14 75 -12 25 -21 52 -21 59 0 13
-42 35 -66 35 -9 0 -28 9 -42 20 -15 12 -37 29 -50 38 -32 24 -34 87 -4 108
12 8 22 25 22 37 0 25 25 65 52 85 37 27 49 67 37 117 l-12 46 -85 -5 c-47 -2
-95 0 -106 4 -12 5 -33 11 -48 14 -21 5 -28 12 -28 30 0 13 7 29 15 36 20 16
19 30 -2 30 -9 0 -36 20 -60 45 -24 25 -52 45 -64 45 -11 0 -40 20 -64 44 -26
28 -59 49 -85 57 -23 7 -44 19 -47 27 -8 19 45 149 66 165 9 6 18 22 19 35 4
33 4 84 0 112 -3 23 0 25 47 28 103 6 147 55 104 114 -40 56 -14 90 63 80 50
-6 60 17 29 71 -18 31 -22 51 -19 102 1 38 -2 68 -9 77 -7 8 -10 23 -7 35 3
11 1 24 -5 27 -6 4 -11 16 -11 27 0 12 -12 27 -30 37 -24 14 -32 28 -40 69
-13 59 -50 106 -94 117 -28 7 -28 7 -24 73 4 56 8 69 28 82 13 9 33 27 45 40
11 13 30 33 43 44 26 24 29 73 8 115 -7 15 -16 46 -20 69 -6 39 -4 42 29 62
40 23 44 40 15 66 -26 24 -25 50 2 69 20 14 20 19 10 54 -7 22 -12 58 -12 81
0 37 -2 41 -25 41 -14 0 -34 6 -45 13 -17 10 -22 9 -30 -3 -22 -35 -64 -80
-76 -80 -7 0 -25 5 -39 12 -20 9 -25 18 -25 48 0 85 -42 131 -69 74 -16 -35
-30 -27 -48 26 -8 25 -19 49 -24 54 -5 6 -9 30 -9 54 0 36 -5 49 -31 73 -17
16 -43 32 -58 35 -55 12 -82 28 -97 56 -14 27 -14 32 1 48 16 18 15 19 -12 33
-19 10 -52 14 -102 12 -71 -3 -74 -2 -90 26 -12 21 -25 29 -51 31 -29 2 -36 7
-38 28 -6 39 -21 50 -72 50 -42 0 -52 -5 -93 -45 -52 -50 -59 -50 -134 -1 -53
34 -104 42 -137 21 -16 -11 -35 -15 -50 -11 -21 5 -29 -4 -75 -75 -29 -45 -63
-85 -78 -92 -23 -10 -28 -8 -49 18 -24 30 -24 30 -55 13 -17 -10 -41 -18 -54
-18 -49 0 -96 -32 -122 -85 -35 -70 -80 -115 -115 -115 -22 0 -35 10 -61 46
-23 33 -47 53 -84 70 l-53 23 0 53 c0 30 6 62 14 74 8 11 14 36 14 57 0 20 9
53 21 73 16 26 19 40 11 54 -15 28 -14 29 35 50 52 22 56 38 15 62 -22 13 -29
23 -27 45 2 26 -1 28 -42 31 -28 2 -56 13 -78 29 -29 23 -44 26 -99 25 -60 0
-65 1 -85 29 -30 42 -50 51 -88 36 -28 -10 -34 -10 -45 6 -17 22 -64 22 -96 0
-13 -9 -40 -19 -59 -22 -24 -4 -39 -14 -46 -28 -6 -15 -22 -24 -54 -30 -40 -7
-46 -12 -55 -41 -10 -35 -35 -43 -56 -17 -10 12 -24 14 -59 9 -58 -7 -74 8
-95 89 -10 38 -25 68 -44 85 -17 16 -32 43 -36 66 -6 33 -4 40 16 55 23 16 22
16 -42 24 -117 14 -210 6 -231 -19 -16 -20 -42 -17 -57 6 -7 11 -17 20 -22 20
-14 0 -13 -33 1 -47 9 -9 8 -18 -5 -37 -13 -21 -24 -26 -60 -26 -37 0 -48 5
-69 30 -16 19 -31 28 -41 24 -19 -7 -29 14 -30 64 -1 33 -5 39 -41 55 -65 29
-69 32 -81 66 l-10 32 -38 -45z"/>
</g>
</svg>
