<svg width="425" height="244" viewBox="0 0 425 244" fill="none" xmlns="http://www.w3.org/2000/svg">
<path d="M223.309 56.9151C223.309 56.9151 241.789 28.0264 229.596 8.06954C224.923 0.421723 214.936 -1.99016 207.288 2.68233C201.808 6.03056 199.017 12.1076 199.594 18.0968C194.528 14.8503 187.847 14.5608 182.366 17.9083C174.719 22.5808 172.307 32.5681 176.979 40.2163C189.172 60.1731 223.309 56.9151 223.309 56.9151Z" fill="#1EC515"/>
<path d="M230.952 69.424C230.952 69.424 212.472 98.312 224.665 118.27C229.338 125.917 239.326 128.33 246.973 123.656C252.453 120.308 255.245 114.231 254.667 108.242C259.733 111.489 266.415 111.779 271.894 108.431C279.542 103.758 281.954 93.7706 277.282 86.1235C265.09 66.1656 230.952 69.424 230.952 69.424Z" fill="#1EC515"/>
<path d="M287.618 43.3272C284.27 37.8468 278.193 35.0555 272.203 35.6326C275.45 30.5664 275.74 23.8857 272.392 18.4056C267.719 10.7578 257.732 8.34553 250.085 13.0177C230.128 25.2106 233.385 59.3485 233.385 59.3485C233.385 59.3485 262.274 77.8278 282.231 65.6352C289.878 60.9627 292.29 50.9751 287.618 43.3272Z" fill="#1EC515"/>
<path d="M182.058 90.7069C178.811 95.7727 178.521 102.454 181.87 107.934C186.542 115.581 196.53 117.993 204.177 113.321C224.135 101.129 220.877 66.9903 220.877 66.9903C220.877 66.9903 191.989 48.511 172.031 60.7043C164.383 65.3764 161.971 75.3641 166.644 83.0119C169.992 88.4924 176.069 91.2836 182.058 90.7069Z" fill="#1EC515"/>
<path d="M215.892 108.501C215.669 108.998 215.44 109.552 215.161 110.143C214.87 110.729 214.58 111.368 214.215 112.026C213.52 113.355 212.653 114.806 211.62 116.315C210.589 117.826 209.388 119.395 208.021 120.959C206.655 122.525 205.125 124.085 203.457 125.601C201.791 127.116 199.989 128.585 198.092 129.984C196.192 131.378 194.194 132.7 192.15 133.938C188.061 136.416 183.766 138.54 179.65 140.297C175.535 142.058 171.595 143.452 168.197 144.52C164.797 145.588 161.937 146.326 159.962 146.789C158.975 147.02 158.208 147.182 157.704 147.282C157.461 147.327 157.275 147.361 157.151 147.384C157.085 147.397 157.065 147.396 157.047 147.398C157.03 147.399 156.996 147.406 157 147.405L161.849 163.515C161.849 163.515 161.947 163.477 162.137 163.403C162.299 163.334 162.54 163.232 162.855 163.099C163.461 162.836 164.318 162.452 165.383 161.95C167.514 160.944 170.479 159.457 173.922 157.509C177.363 155.56 181.285 153.15 185.307 150.31C189.328 147.475 193.45 144.209 197.268 140.613C199.177 138.816 201.013 136.944 202.725 135.018C204.435 133.089 206.021 131.11 207.447 129.123C208.875 127.136 210.139 125.14 211.222 123.19C212.306 121.242 213.207 119.34 213.939 117.554C214.672 115.769 215.24 114.1 215.656 112.603C215.881 111.861 216.039 111.149 216.203 110.503C216.357 109.852 216.469 109.248 216.583 108.709C216.775 107.619 216.914 106.767 216.978 106.181C217.051 105.598 217.09 105.287 217.09 105.287C217.09 105.287 216.986 105.583 216.793 106.137C216.612 106.693 216.298 107.494 215.892 108.501Z" fill="#1EC515"/>
<path d="M51.7551 152.242L43.546 219H38.8281L42.744 187.249C39.3785 188.287 36.0918 189.136 32.8836 189.796C29.7069 190.457 26.7032 190.85 23.8725 190.976C21.0732 191.102 18.5255 190.913 16.2295 190.41C13.9649 189.875 12.062 188.947 10.5209 187.626C8.97969 186.274 7.86313 184.465 7.17117 182.201C6.51067 179.936 6.40059 177.121 6.84092 173.756L9.43575 152.242H14.2008L11.5116 173.756C11.0398 177.561 11.4487 180.518 12.7383 182.625C14.0278 184.701 16.0408 186.085 18.7772 186.777C21.545 187.469 24.989 187.532 29.1093 186.966C33.2296 186.368 37.916 185.283 43.1686 183.71L47.0372 152.242H51.7551ZM99.2044 172.057L93.543 219H91.4671C90.8695 219 90.4292 218.843 90.1461 218.528C89.8945 218.214 89.7687 217.789 89.7687 217.254L91.184 203.903C89.8945 206.388 88.4791 208.605 86.9379 210.555C85.3968 212.505 83.7612 214.156 82.0314 215.509C80.3329 216.83 78.5558 217.852 76.7002 218.575C74.8759 219.267 73.0517 219.613 71.2274 219.613C67.2015 219.613 64.3236 218.072 62.5937 214.99C60.8638 211.876 60.3448 207.52 61.0368 201.921L64.5752 172.057H69.01L65.4716 201.921C64.9369 206.419 65.2357 209.879 66.368 212.301C67.5003 214.691 69.6233 215.886 72.7371 215.886C74.467 215.886 76.2126 215.446 77.974 214.565C79.7668 213.685 81.4967 212.426 83.1636 210.791C84.8306 209.124 86.4033 207.142 87.8815 204.846C89.3598 202.519 90.6651 199.908 91.7974 197.015L94.7696 172.057H99.2044ZM142.007 210.413C140.34 212.269 138.752 213.795 137.242 214.99C135.764 216.185 134.301 217.129 132.855 217.821C131.439 218.512 129.993 218.984 128.514 219.236C127.036 219.488 125.463 219.613 123.796 219.613C121.091 219.613 118.732 219.157 116.72 218.245C114.738 217.302 113.087 215.996 111.766 214.329C110.445 212.662 109.454 210.681 108.794 208.385C108.133 206.089 107.803 203.588 107.803 200.883C107.803 198.399 108.054 195.945 108.558 193.523C109.092 191.07 109.847 188.743 110.822 186.541C111.797 184.339 112.977 182.311 114.361 180.455C115.745 178.599 117.301 176.995 119.031 175.643C120.761 174.29 122.633 173.237 124.646 172.482C126.69 171.695 128.86 171.302 131.156 171.302C132.697 171.302 134.081 171.46 135.308 171.774C136.566 172.057 137.714 172.482 138.752 173.048C139.79 173.583 140.734 174.243 141.583 175.029C142.432 175.816 143.218 176.696 143.942 177.671L142.621 179.228C142.338 179.574 142.007 179.747 141.63 179.747C141.315 179.747 140.922 179.496 140.45 178.992C140.01 178.489 139.397 177.954 138.61 177.388C137.856 176.791 136.865 176.24 135.638 175.737C134.412 175.234 132.87 174.982 131.015 174.982C128.373 174.982 125.904 175.69 123.608 177.105C121.343 178.521 119.362 180.423 117.663 182.814C115.996 185.204 114.675 187.972 113.7 191.117C112.757 194.231 112.285 197.486 112.285 200.883C112.285 203.054 112.521 205.067 112.992 206.922C113.496 208.778 114.251 210.382 115.257 211.734C116.295 213.087 117.584 214.141 119.126 214.895C120.667 215.65 122.491 216.028 124.598 216.028C126.265 216.028 127.759 215.855 129.08 215.509C130.401 215.131 131.565 214.675 132.572 214.141C133.61 213.606 134.506 213.024 135.261 212.395C136.047 211.734 136.739 211.137 137.337 210.602C137.934 210.067 138.437 209.627 138.846 209.281C139.287 208.904 139.68 208.715 140.026 208.715C140.372 208.715 140.702 208.872 141.017 209.187L142.007 210.413ZM150.979 219L156.64 171.916H158.669C159.77 171.916 160.32 172.482 160.32 173.614L158.999 186.73C161.452 181.855 164.283 178.08 167.491 175.407C170.699 172.702 174.081 171.349 177.635 171.349C179.459 171.349 180.969 171.68 182.164 172.34C183.359 173.001 184.287 173.976 184.947 175.265C185.608 176.523 186.033 178.08 186.221 179.936C186.41 181.792 186.41 183.915 186.221 186.305C187.448 183.789 188.785 181.603 190.231 179.747C191.71 177.86 193.251 176.303 194.855 175.077C196.49 173.818 198.157 172.891 199.856 172.293C201.554 171.664 203.237 171.349 204.904 171.349C206.948 171.349 208.631 171.743 209.952 172.529C211.305 173.315 212.343 174.463 213.066 175.973C213.789 177.483 214.214 179.338 214.34 181.54C214.497 183.71 214.403 186.195 214.057 188.994L210.518 219H206.131L209.669 188.994C209.952 186.761 210.062 184.78 209.999 183.05C209.968 181.32 209.716 179.873 209.244 178.709C208.804 177.514 208.112 176.618 207.169 176.02C206.257 175.423 205.03 175.124 203.489 175.124C201.948 175.124 200.375 175.485 198.771 176.209C197.198 176.901 195.641 177.954 194.1 179.37C192.59 180.785 191.144 182.562 189.76 184.701C188.407 186.84 187.181 189.356 186.08 192.25L182.919 219H178.531L182.07 188.994C182.353 186.761 182.494 184.78 182.494 183.05C182.494 181.32 182.29 179.873 181.881 178.709C181.472 177.514 180.811 176.618 179.899 176.02C179.019 175.423 177.808 175.124 176.267 175.124C172.681 175.124 169.363 176.759 166.312 180.03C163.292 183.301 160.635 187.925 158.339 193.901L155.366 219H150.979ZM241.588 216.075C244.324 216.075 246.809 215.367 249.042 213.952C251.307 212.505 253.241 210.602 254.845 208.243C256.449 205.853 257.676 203.132 258.525 200.081C259.406 196.999 259.846 193.838 259.846 190.598C259.846 185.566 258.729 181.697 256.496 178.992C254.263 176.287 251.165 174.935 247.202 174.935C244.466 174.935 241.965 175.643 239.701 177.058C237.467 178.473 235.549 180.361 233.945 182.72C232.372 185.047 231.146 187.736 230.265 190.787C229.384 193.838 228.944 197.015 228.944 200.317C228.944 205.318 230.045 209.203 232.246 211.97C234.479 214.707 237.593 216.075 241.588 216.075ZM241.21 219.613C238.694 219.613 236.398 219.173 234.322 218.292C232.278 217.412 230.516 216.138 229.038 214.471C227.591 212.804 226.459 210.791 225.641 208.432C224.855 206.042 224.462 203.337 224.462 200.317C224.462 196.511 225.028 192.863 226.16 189.372C227.293 185.881 228.881 182.798 230.925 180.125C233.001 177.451 235.455 175.328 238.285 173.756C241.116 172.151 244.23 171.349 247.627 171.349C250.143 171.349 252.423 171.79 254.468 172.67C256.543 173.551 258.305 174.825 259.752 176.492C261.23 178.159 262.362 180.188 263.148 182.578C263.966 184.937 264.375 187.595 264.375 190.551C264.375 194.357 263.793 198.005 262.629 201.497C261.497 204.988 259.909 208.086 257.864 210.791C255.82 213.464 253.382 215.603 250.552 217.207C247.721 218.811 244.607 219.613 241.21 219.613ZM277.273 197.534C277.085 198.949 276.99 200.349 276.99 201.733C276.959 203.808 277.195 205.743 277.698 207.536C278.201 209.297 278.94 210.822 279.915 212.112C280.922 213.401 282.164 214.408 283.642 215.131C285.121 215.855 286.851 216.216 288.832 216.216C290.751 216.185 292.575 215.823 294.305 215.131C296.035 214.439 297.544 213.512 298.834 212.348C300.155 211.153 301.193 209.784 301.948 208.243C302.734 206.671 303.127 205.019 303.127 203.289C303.127 201.906 302.876 200.616 302.372 199.421C301.869 198.226 301.051 197.251 299.919 196.496C298.787 195.709 297.277 195.206 295.39 194.986C293.534 194.734 291.238 194.86 288.502 195.363L277.273 197.534ZM287.417 192.674C291.034 192.014 293.927 191.243 296.098 190.362C298.299 189.45 299.982 188.491 301.146 187.485C302.341 186.447 303.127 185.393 303.505 184.324C303.914 183.254 304.118 182.201 304.118 181.163C304.118 180.439 303.992 179.7 303.741 178.945C303.489 178.159 303.049 177.451 302.42 176.822C301.822 176.162 301.02 175.627 300.013 175.218C299.007 174.809 297.749 174.605 296.239 174.605C293.849 174.605 291.647 175.155 289.634 176.256C287.621 177.325 285.813 178.788 284.209 180.644C282.636 182.468 281.299 184.591 280.198 187.013C279.098 189.403 278.28 191.935 277.745 194.609L287.417 192.674ZM295.013 193.004C298.944 192.942 301.964 193.807 304.071 195.599C306.21 197.392 307.279 199.94 307.279 203.242C307.279 205.413 306.776 207.488 305.769 209.47C304.794 211.451 303.458 213.197 301.759 214.707C300.061 216.216 298.063 217.427 295.767 218.339C293.471 219.22 291.002 219.661 288.36 219.661C285.781 219.661 283.501 219.22 281.519 218.339C279.569 217.459 277.918 216.248 276.566 214.707C275.245 213.134 274.238 211.294 273.546 209.187C272.886 207.048 272.555 204.736 272.555 202.252C272.555 199.735 272.807 197.235 273.31 194.75C273.845 192.234 274.6 189.844 275.575 187.579C276.581 185.283 277.792 183.16 279.208 181.21C280.654 179.228 282.274 177.514 284.067 176.067C285.86 174.621 287.81 173.488 289.917 172.67C292.056 171.853 294.336 171.444 296.758 171.444C298.74 171.444 300.438 171.711 301.853 172.246C303.269 172.781 304.417 173.488 305.298 174.369C306.21 175.218 306.87 176.177 307.279 177.247C307.688 178.316 307.892 179.386 307.892 180.455C307.892 181.682 307.672 182.893 307.232 184.088C306.823 185.283 306.115 186.431 305.109 187.532C304.102 188.601 302.766 189.608 301.099 190.551C299.463 191.495 297.434 192.313 295.013 193.004ZM356.937 172.057L351.275 219H349.2C348.602 219 348.162 218.843 347.879 218.528C347.627 218.214 347.501 217.789 347.501 217.254L348.917 203.903C347.627 206.388 346.212 208.605 344.67 210.555C343.129 212.505 341.494 214.156 339.764 215.509C338.065 216.83 336.288 217.852 334.433 218.575C332.608 219.267 330.784 219.613 328.96 219.613C324.934 219.613 322.056 218.072 320.326 214.99C318.596 211.876 318.077 207.52 318.769 201.921L322.308 172.057H326.742L323.204 201.921C322.669 206.419 322.968 209.879 324.1 212.301C325.233 214.691 327.356 215.886 330.47 215.886C332.2 215.886 333.945 215.446 335.706 214.565C337.499 213.685 339.229 212.426 340.896 210.791C342.563 209.124 344.136 207.142 345.614 204.846C347.092 202.519 348.398 199.908 349.53 197.015L352.502 172.057H356.937ZM395.541 180.549C394.66 181.587 393.748 182.436 392.805 183.097C391.892 183.726 390.839 184.214 389.644 184.559C390.965 184.843 392.018 185.346 392.805 186.069C393.622 186.793 394.393 187.799 395.116 189.089L413.327 219H409.223C408.625 219 408.153 218.858 407.807 218.575C407.461 218.292 407.115 217.852 406.769 217.254L390.163 190.079C389.817 189.513 389.471 189.026 389.125 188.617C388.81 188.177 388.433 187.831 387.992 187.579C387.552 187.296 387.033 187.091 386.435 186.966C385.869 186.84 385.177 186.777 384.36 186.777H376.434L372.471 219H367.753L375.962 152.242H380.632L376.858 183.144H383.935C384.658 183.144 385.319 183.097 385.916 183.003C386.514 182.908 387.08 182.735 387.615 182.484C388.181 182.232 388.731 181.886 389.266 181.446C389.832 181.005 390.414 180.439 391.012 179.747L413.28 153.752C413.626 153.311 414.019 152.95 414.46 152.667C414.931 152.384 415.435 152.242 415.969 152.242H419.838L395.541 180.549Z" fill="white"/>
</svg>
