<svg width="582" height="249" viewBox="0 0 582 249" fill="none" xmlns="http://www.w3.org/2000/svg">
<line x1="4" y1="197" x2="4.00001" y2="8" stroke="white" stroke-width="8"/>
<line x1="4" y1="3.99976" x2="578" y2="3.99971" stroke="white" stroke-width="8"/>
<line x1="578" y1="8" x2="578" y2="198" stroke="white" stroke-width="8"/>
<line x1="578" y1="201" x2="509" y2="201" stroke="white" stroke-width="8"/>
<path d="M72 197L4 197" stroke="white" stroke-width="8"/>
<path d="M129.87 160.96L121.661 227.718H116.943L120.859 195.966C117.493 197.004 114.207 197.854 110.998 198.514C107.822 199.175 104.818 199.568 101.987 199.694C99.1881 199.819 96.6404 199.631 94.3444 199.127C92.0798 198.593 90.1769 197.665 88.6357 196.344C87.0946 194.991 85.978 193.183 85.286 190.918C84.6255 188.654 84.5155 185.839 84.9558 182.473L87.5506 160.96H92.3157L89.6265 182.473C89.1547 186.279 89.5636 189.236 90.8531 191.343C92.1427 193.419 94.1557 194.803 96.892 195.495C99.6598 196.187 103.104 196.25 107.224 195.683C111.344 195.086 116.031 194.001 121.283 192.428L125.152 160.96H129.87ZM177.319 180.775L171.658 227.718H169.582C168.984 227.718 168.544 227.561 168.261 227.246C168.009 226.931 167.884 226.507 167.884 225.972L169.299 212.621C168.009 215.105 166.594 217.323 165.053 219.273C163.512 221.223 161.876 222.874 160.146 224.227C158.448 225.548 156.671 226.57 154.815 227.293C152.991 227.985 151.167 228.331 149.342 228.331C145.316 228.331 142.438 226.79 140.709 223.708C138.979 220.594 138.46 216.238 139.152 210.639L142.69 180.775H147.125L143.586 210.639C143.052 215.137 143.351 218.597 144.483 221.018C145.615 223.409 147.738 224.604 150.852 224.604C152.582 224.604 154.328 224.164 156.089 223.283C157.882 222.402 159.612 221.144 161.279 219.509C162.945 217.842 164.518 215.86 165.996 213.564C167.475 211.237 168.78 208.626 169.912 205.732L172.884 180.775H177.319ZM220.122 219.131C218.455 220.987 216.867 222.512 215.357 223.708C213.879 224.903 212.416 225.846 210.97 226.538C209.554 227.23 208.107 227.702 206.629 227.954C205.151 228.205 203.578 228.331 201.911 228.331C199.206 228.331 196.847 227.875 194.834 226.963C192.853 226.019 191.202 224.714 189.881 223.047C188.56 221.38 187.569 219.399 186.908 217.103C186.248 214.807 185.918 212.306 185.918 209.601C185.918 207.116 186.169 204.663 186.672 202.241C187.207 199.788 187.962 197.46 188.937 195.259C189.912 193.057 191.092 191.028 192.475 189.173C193.859 187.317 195.416 185.713 197.146 184.36C198.876 183.008 200.747 181.954 202.76 181.2C204.805 180.413 206.975 180.02 209.271 180.02C210.812 180.02 212.196 180.177 213.423 180.492C214.681 180.775 215.829 181.2 216.867 181.766C217.905 182.3 218.848 182.961 219.698 183.747C220.547 184.533 221.333 185.414 222.057 186.389L220.736 187.946C220.452 188.292 220.122 188.465 219.745 188.465C219.43 188.465 219.037 188.213 218.565 187.71C218.125 187.207 217.512 186.672 216.725 186.106C215.97 185.508 214.98 184.958 213.753 184.455C212.526 183.952 210.985 183.7 209.13 183.7C206.488 183.7 204.019 184.408 201.723 185.823C199.458 187.238 197.476 189.141 195.778 191.532C194.111 193.922 192.79 196.69 191.815 199.835C190.871 202.949 190.4 206.204 190.4 209.601C190.4 211.771 190.635 213.784 191.107 215.64C191.611 217.496 192.365 219.1 193.372 220.452C194.41 221.805 195.699 222.858 197.241 223.613C198.782 224.368 200.606 224.746 202.713 224.746C204.38 224.746 205.874 224.573 207.195 224.227C208.516 223.849 209.68 223.393 210.686 222.858C211.724 222.324 212.621 221.742 213.376 221.113C214.162 220.452 214.854 219.855 215.452 219.32C216.049 218.785 216.552 218.345 216.961 217.999C217.402 217.622 217.795 217.433 218.141 217.433C218.487 217.433 218.817 217.59 219.131 217.905L220.122 219.131ZM229.094 227.718L234.755 180.633H236.784C237.885 180.633 238.435 181.2 238.435 182.332L237.114 195.447C239.567 190.572 242.398 186.798 245.606 184.125C248.814 181.42 252.195 180.067 255.75 180.067C257.574 180.067 259.084 180.397 260.279 181.058C261.474 181.718 262.402 182.693 263.062 183.983C263.723 185.241 264.147 186.798 264.336 188.654C264.525 190.509 264.525 192.632 264.336 195.023C265.563 192.507 266.899 190.321 268.346 188.465C269.825 186.578 271.366 185.021 272.97 183.794C274.605 182.536 276.272 181.608 277.971 181.011C279.669 180.382 281.352 180.067 283.019 180.067C285.063 180.067 286.746 180.46 288.067 181.247C289.42 182.033 290.457 183.181 291.181 184.691C291.904 186.2 292.329 188.056 292.455 190.258C292.612 192.428 292.518 194.913 292.172 197.712L288.633 227.718H284.246L287.784 197.712C288.067 195.479 288.177 193.497 288.114 191.768C288.083 190.038 287.831 188.591 287.359 187.427C286.919 186.232 286.227 185.336 285.283 184.738C284.371 184.14 283.145 183.842 281.604 183.842C280.062 183.842 278.49 184.203 276.886 184.927C275.313 185.619 273.756 186.672 272.215 188.088C270.705 189.503 269.258 191.28 267.875 193.419C266.522 195.558 265.295 198.074 264.195 200.967L261.034 227.718H256.646L260.184 197.712C260.467 195.479 260.609 193.497 260.609 191.768C260.609 190.038 260.405 188.591 259.996 187.427C259.587 186.232 258.926 185.336 258.014 184.738C257.133 184.14 255.923 183.842 254.381 183.842C250.796 183.842 247.478 185.477 244.427 188.748C241.407 192.019 238.749 196.643 236.453 202.619L233.481 227.718H229.094ZM319.703 224.793C322.439 224.793 324.924 224.085 327.157 222.67C329.421 221.223 331.356 219.32 332.96 216.961C334.564 214.571 335.791 211.85 336.64 208.799C337.52 205.717 337.961 202.556 337.961 199.316C337.961 194.284 336.844 190.415 334.611 187.71C332.378 185.005 329.28 183.653 325.317 183.653C322.581 183.653 320.08 184.36 317.815 185.776C315.582 187.191 313.664 189.078 312.06 191.437C310.487 193.765 309.26 196.454 308.38 199.505C307.499 202.556 307.059 205.732 307.059 209.035C307.059 214.036 308.16 217.92 310.361 220.688C312.594 223.425 315.708 224.793 319.703 224.793ZM319.325 228.331C316.809 228.331 314.513 227.891 312.437 227.01C310.393 226.129 308.631 224.856 307.153 223.189C305.706 221.522 304.574 219.509 303.756 217.15C302.97 214.759 302.577 212.054 302.577 209.035C302.577 205.229 303.143 201.581 304.275 198.09C305.407 194.598 306.996 191.516 309.04 188.842C311.116 186.169 313.569 184.046 316.4 182.473C319.231 180.869 322.345 180.067 325.741 180.067C328.258 180.067 330.538 180.508 332.582 181.388C334.658 182.269 336.42 183.543 337.866 185.21C339.345 186.877 340.477 188.905 341.263 191.296C342.081 193.655 342.49 196.312 342.49 199.269C342.49 203.075 341.908 206.723 340.744 210.214C339.612 213.706 338.024 216.804 335.979 219.509C333.935 222.182 331.497 224.321 328.667 225.925C325.836 227.529 322.722 228.331 319.325 228.331ZM355.388 206.251C355.199 207.667 355.105 209.066 355.105 210.45C355.074 212.526 355.31 214.461 355.813 216.253C356.316 218.015 357.055 219.54 358.03 220.83C359.037 222.119 360.279 223.126 361.757 223.849C363.236 224.573 364.965 224.934 366.947 224.934C368.866 224.903 370.69 224.541 372.42 223.849C374.15 223.157 375.659 222.229 376.949 221.066C378.27 219.87 379.308 218.502 380.063 216.961C380.849 215.388 381.242 213.737 381.242 212.007C381.242 210.623 380.991 209.334 380.487 208.139C379.984 206.943 379.166 205.968 378.034 205.213C376.902 204.427 375.392 203.924 373.505 203.704C371.649 203.452 369.353 203.578 366.617 204.081L355.388 206.251ZM365.532 201.392C369.149 200.732 372.042 199.961 374.213 199.08C376.414 198.168 378.097 197.209 379.261 196.202C380.456 195.164 381.242 194.111 381.62 193.041C382.028 191.972 382.233 190.918 382.233 189.88C382.233 189.157 382.107 188.418 381.855 187.663C381.604 186.877 381.164 186.169 380.534 185.54C379.937 184.879 379.135 184.345 378.128 183.936C377.122 183.527 375.864 183.323 374.354 183.323C371.964 183.323 369.762 183.873 367.749 184.974C365.736 186.043 363.928 187.506 362.323 189.361C360.751 191.186 359.414 193.309 358.313 195.731C357.212 198.121 356.395 200.653 355.86 203.326L365.532 201.392ZM373.127 201.722C377.059 201.659 380.078 202.524 382.186 204.317C384.325 206.11 385.394 208.658 385.394 211.96C385.394 214.13 384.891 216.206 383.884 218.188C382.909 220.169 381.572 221.915 379.874 223.425C378.176 224.934 376.178 226.145 373.882 227.057C371.586 227.938 369.117 228.378 366.475 228.378C363.896 228.378 361.616 227.938 359.634 227.057C357.684 226.177 356.033 224.966 354.681 223.425C353.359 221.852 352.353 220.012 351.661 217.905C351.001 215.766 350.67 213.454 350.67 210.969C350.67 208.453 350.922 205.953 351.425 203.468C351.96 200.952 352.715 198.561 353.69 196.297C354.696 194.001 355.907 191.878 357.323 189.928C358.769 187.946 360.389 186.232 362.182 184.785C363.975 183.338 365.925 182.206 368.032 181.388C370.171 180.57 372.451 180.162 374.873 180.162C376.855 180.162 378.553 180.429 379.968 180.964C381.384 181.498 382.532 182.206 383.412 183.087C384.325 183.936 384.985 184.895 385.394 185.965C385.803 187.034 386.007 188.103 386.007 189.173C386.007 190.399 385.787 191.61 385.347 192.805C384.938 194.001 384.23 195.149 383.224 196.25C382.217 197.319 380.88 198.325 379.213 199.269C377.578 200.213 375.549 201.03 373.127 201.722ZM435.052 180.775L429.39 227.718H427.314C426.717 227.718 426.277 227.561 425.993 227.246C425.742 226.931 425.616 226.507 425.616 225.972L427.031 212.621C425.742 215.105 424.326 217.323 422.785 219.273C421.244 221.223 419.609 222.874 417.879 224.227C416.18 225.548 414.403 226.57 412.547 227.293C410.723 227.985 408.899 228.331 407.075 228.331C403.049 228.331 400.171 226.79 398.441 223.708C396.711 220.594 396.192 216.238 396.884 210.639L400.423 180.775H404.857L401.319 210.639C400.784 215.137 401.083 218.597 402.215 221.018C403.348 223.409 405.471 224.604 408.584 224.604C410.314 224.604 412.06 224.164 413.821 223.283C415.614 222.402 417.344 221.144 419.011 219.509C420.678 217.842 422.251 215.86 423.729 213.564C425.207 211.237 426.512 208.626 427.645 205.732L430.617 180.775H435.052ZM473.656 189.267C472.775 190.305 471.863 191.154 470.919 191.815C470.007 192.444 468.954 192.931 467.758 193.277C469.079 193.56 470.133 194.064 470.919 194.787C471.737 195.51 472.508 196.517 473.231 197.806L491.442 227.718H487.338C486.74 227.718 486.268 227.576 485.922 227.293C485.576 227.01 485.23 226.57 484.884 225.972L468.277 198.797C467.931 198.231 467.585 197.744 467.239 197.335C466.925 196.894 466.548 196.548 466.107 196.297C465.667 196.014 465.148 195.809 464.55 195.683C463.984 195.558 463.292 195.495 462.474 195.495H454.548L450.585 227.718H445.868L454.077 160.96H458.747L454.973 191.862H462.05C462.773 191.862 463.434 191.815 464.031 191.72C464.629 191.626 465.195 191.453 465.73 191.201C466.296 190.95 466.846 190.604 467.381 190.163C467.947 189.723 468.529 189.157 469.127 188.465L491.395 162.47C491.741 162.029 492.134 161.667 492.574 161.384C493.046 161.101 493.55 160.96 494.084 160.96H497.953L473.656 189.267Z" fill="white"/>
<path d="M288.785 67.9493C288.785 67.9493 309.069 39.9106 295.686 20.5409C290.556 13.1181 279.594 10.7772 271.199 15.3122C265.184 18.5619 262.12 24.4601 262.753 30.2731C257.192 27.1222 249.859 26.8411 243.844 30.0902C235.449 34.6252 232.801 44.3187 237.93 51.7418C251.313 71.1115 288.785 67.9493 288.785 67.9493Z" fill="#1EC515"/>
<path d="M297.174 80.0903C297.174 80.0903 276.89 108.128 290.273 127.499C295.402 134.922 306.365 137.263 314.76 132.727C320.775 129.478 323.839 123.58 323.205 117.766C328.766 120.918 336.1 121.199 342.114 117.949C350.509 113.414 353.157 103.721 348.028 96.2985C334.645 76.9278 297.174 80.0903 297.174 80.0903Z" fill="#1EC515"/>
<path d="M359.374 54.7612C355.699 49.442 349.028 46.7328 342.454 47.293C346.018 42.3758 346.336 35.8916 342.661 30.5727C337.532 23.1499 326.57 20.8087 318.175 25.3434C296.27 37.1776 299.845 70.3111 299.845 70.3111C299.845 70.3111 331.554 88.2467 353.461 76.4128C361.854 71.8778 364.502 62.184 359.374 54.7612Z" fill="#1EC515"/>
<path d="M243.505 100.747C239.941 105.664 239.623 112.148 243.299 117.467C248.427 124.89 259.39 127.23 267.784 122.696C289.691 110.862 286.115 77.7281 286.115 77.7281C286.115 77.7281 254.405 59.7925 232.499 71.627C224.104 76.1617 221.456 85.8555 226.586 93.2783C230.261 98.5975 236.931 101.307 243.505 100.747Z" fill="#1EC515"/>
<path d="M280.643 118.017C280.398 118.5 280.146 119.038 279.84 119.611C279.522 120.18 279.203 120.8 278.802 121.439C278.04 122.729 277.088 124.137 275.954 125.602C274.823 127.069 273.504 128.591 272.004 130.109C270.504 131.628 268.824 133.143 266.994 134.614C265.165 136.085 263.187 137.511 261.105 138.868C259.019 140.222 256.826 141.504 254.582 142.706C250.094 145.112 245.38 147.173 240.862 148.878C236.345 150.587 232.021 151.94 228.291 152.977C224.559 154.013 221.419 154.73 219.251 155.179C218.167 155.403 217.325 155.561 216.772 155.657C216.506 155.701 216.302 155.734 216.165 155.757C216.094 155.769 216.072 155.769 216.052 155.77C216.033 155.771 215.996 155.778 216 155.777L221.323 171.413C221.323 171.413 221.43 171.376 221.638 171.304C221.816 171.237 222.081 171.138 222.427 171.01C223.091 170.754 224.032 170.381 225.202 169.894C227.541 168.917 230.795 167.474 234.574 165.584C238.352 163.692 242.657 161.353 247.071 158.596C251.485 155.844 256.01 152.675 260.2 149.185C262.296 147.441 264.311 145.623 266.191 143.754C268.067 141.882 269.809 139.962 271.374 138.033C272.941 136.104 274.328 134.167 275.517 132.274C276.707 130.383 277.696 128.538 278.499 126.804C279.303 125.071 279.927 123.452 280.384 121.999C280.631 121.278 280.805 120.588 280.985 119.961C281.153 119.329 281.276 118.743 281.402 118.219C281.612 117.161 281.765 116.334 281.835 115.765C281.915 115.2 281.958 114.898 281.958 114.898C281.958 114.898 281.844 115.185 281.633 115.724C281.434 116.262 281.089 117.04 280.643 118.017Z" fill="#1EC515"/>
</svg>
