<?xml version="1.0" encoding="UTF-8"?>
<!DOCTYPE svg PUBLIC "-//W3C//DTD SVG 1.1//EN" "http://www.w3.org/Graphics/SVG/1.1/DTD/svg11.dtd">
<!-- Creator: CorelDRAW 2019 (64-Bit) -->
<svg xmlns="http://www.w3.org/2000/svg" xml:space="preserve" width="210mm" height="297mm" version="1.1" style="shape-rendering:geometricPrecision; text-rendering:geometricPrecision; image-rendering:optimizeQuality; fill-rule:evenodd; clip-rule:evenodd"
viewBox="0 0 21000 29700"
 xmlns:xlink="http://www.w3.org/1999/xlink"
 xmlns:xodm="http://www.corel.com/coreldraw/odm/2003">
 <defs>
  <style type="text/css">
   <![CDATA[
    .fil0 {fill:#2B2A29;fill-rule:nonzero}
   ]]>
  </style>
 </defs>
 <g id="Слой_x0020_1">
  <metadata id="CorelCorpID_0Corel-Layer"/>
  <g id="_2502494870656">
   <path class="fil0" d="M1912.42 2931.93c0.63,-5.16 -0.83,-10.65 -1.92,-16.06 -2.5,-11.3 -6.25,-22.78 -9.19,-33.71 -6.07,-1.67 -11.12,-3.67 -16.82,-5.6 -6.97,12.1 -13.3,24.05 -20.56,35.35 -52.81,84.1 -106.69,167.68 -158.96,252.15 -40.11,66.48 -74.47,136.91 -119.37,200.55 -67.32,95.14 -70.88,93.94 24.33,164.56 19.29,14.97 24.45,26.89 16.27,49.59 -57.39,157.74 -113.95,315.68 -170.62,473.53 1.2,18.92 1.74,38.03 2.66,56.48 16.71,18.92 30.22,45.81 50.7,55.91 70.33,31.78 141.31,59.5 211.93,88.53 19.91,8.09 40.04,16.53 60.05,24.62 77.86,-133.71 104.59,-271.25 45.74,-405.04 -21.69,-49.33 -42.98,-99.1 -66.67,-146.94 -15.61,-30.12 -15.9,-55.55 1.36,-86.5 68.69,-122.67 113.69,-252.25 92.01,-396.68 -3.02,-22.86 6.8,-47.01 11.59,-70.88 15.98,-79.63 33.24,-159.62 47.47,-239.86z"/>
   <path class="fil0" d="M6218.43 6869.79c-15.88,-25.35 -22.41,-52.71 -33.24,-78.79 -32.7,-76.78 -50.79,-156.2 -32.88,-244.44 10.83,-54.64 11.19,-111.95 16.06,-168.41 2.58,-27.75 -6.87,-41.88 -38.29,-40.87 -41.77,0.65 -83.45,-6.14 -125.07,-4.86 -134.34,3.67 -268.49,8.72 -402.54,15.25 -35.46,1.56 -65.57,17.07 -82.57,50.57 -36,66.95 -75.56,133.43 -104.77,203.58 -36.73,86.6 -67.02,176.4 -99.17,264.56 -3.49,10.03 -7.34,20.02 -10.93,29.57 -1.02,2.58 1.01,7.71 3.85,21.48 20.95,-9.74 44.35,-13.67 55.1,-27.36 5.23,-6.69 10.47,-13.59 15.8,-20.38 27.1,-33.71 55,-67.78 66.95,-106.43 32.3,-103.86 98.34,-124.97 198.79,-128.46 144.36,-4.03 264.2,25.72 353.35,148.03 11.11,15.41 26.91,24.7 40.32,36.91 40.86,36.91 88.42,65.75 141.96,84.65 15.98,5.7 31.03,13.69 46.91,20.3 5.7,-0.18 10.85,-0.36 16.16,-0.47 -8.35,-18.35 -15.04,-37.64 -25.79,-54.43z"/>
   <path class="fil0" d="M7969.17 4908.16c-12.68,-40.5 -24.78,-81.26 -39.38,-128.01 -12.97,39.12 -23.43,73.38 -36.29,109.74 -15.96,45.99 -34.23,93.57 -45.81,138.94 -22.05,81.27 -38.84,164.64 -49.95,247.83 -7.52,59.87 -5.05,120.93 5.33,184.03 3.57,23.95 5.05,47.09 12.58,71.79 55.28,-176.95 106.69,-343.7 158.75,-511.01 -1.27,-37.46 -3.49,-75.1 -5.23,-113.31z"/>
   <path class="fil0" d="M5161.27 6903.32c-9.09,-14.89 -12.78,-31.05 -20.49,-46.2 -34.98,-69.24 -57.11,-140.77 -37.46,-221.49 13.59,-59.14 29.94,-116.97 42.61,-176.11 22.39,-103.76 19.84,-111.93 -71.81,-166.56 -166.38,-99.28 -350.05,-125.18 -539.57,-115.52 -66.48,3.48 -116.17,41.12 -149.59,97.87 -19.1,33.24 -33.52,70.35 -49.4,105.34 -43.89,96.13 -76.58,197.41 -137.75,284.29 -6.69,9.45 -11.92,19 -19.18,28.45 -6.8,8.18 -5.52,22.6 -9.92,43.45 19.65,-7.71 27.17,-10.1 34.15,-13.23 22.52,-11.76 44.35,-24.52 65.39,-37.74 55.47,-36 103.96,-78.97 131.68,-144.91 8.82,-21.39 22.96,-40.39 52.34,-32.95 133.87,34.15 268.21,66.95 401.56,102.56 45.74,11.84 80.35,40.03 102.84,84.2 21.11,40.32 45.56,79.63 72.81,116.17 9.84,13.88 22.15,25.43 32.98,38.66 20.56,25.06 41.12,50.23 63.28,74.21 11.19,11.37 30.66,15.14 46.46,22.38 2.73,-4.11 5.31,-7.16 8.25,-10.72 -6.43,-11.04 -12.31,-21.58 -19.18,-32.15z"/>
   <path class="fil0" d="M4086.33 6020.74c-113.96,-69.14 -229.19,-135.8 -344.35,-201.29 -19.55,-11.09 -43.52,-15.22 -65.46,-20.74 -58.67,-14.5 -110.57,1.09 -150.06,45.26 -24.7,26.73 -46.1,56.77 -63.8,88.35 -48.96,86.49 -112.58,160.6 -187.05,225.26 -18.19,15.59 -37.92,31.02 -56.66,45.99 -14.24,11.84 -27.83,22.88 -42.15,34.72 28.27,29.18 54.64,26.16 84.21,10.65 4.69,-2.4 9.92,-4.5 14.86,-7.34 56.75,-30.04 112.68,-61.53 171.82,-87.07 24.71,-10.93 58.31,-11.92 85.3,-5.6 138.3,31.97 257.75,105.14 376.49,178.98 9.74,5.68 18.54,20.57 19.55,31.58 4.32,80.53 29.57,155.37 58.05,228.46 13.04,32.69 24.96,65.75 38.36,98.54 4.25,9.38 10.57,17.91 15.8,26.63 -3.2,-36 -0.18,-69.6 5.05,-103.31 11.04,-71.06 35.09,-139.13 52.45,-207.24 16.61,-66.22 33.14,-133.07 53.99,-198.09 25.61,-79.96 2.21,-141.68 -66.4,-183.74z"/>
   <path class="fil0" d="M2976.25 5363.6c-77.49,-68.12 -158.13,-133.97 -239.29,-198.35 -20.2,-16.06 -46.39,-28.26 -71.82,-34.8 -45.26,-12.2 -73.92,10.21 -88.52,53.47 -41.68,125.62 -100.16,236.27 -208.08,300.82 -33.61,20.46 -71.25,36.55 -115.13,46.54 -6.07,1.56 -12.42,5.23 -18.56,7.26 -0.55,3.49 -0.91,6.87 -1.38,9.92 23.51,3.2 46.75,7.16 69.6,9.27 43.26,3.48 85.41,-0.45 126.17,-8.25 38.86,-7.55 76.86,-18.82 114.79,-32.7 48.13,-17.91 94.41,-19 139.67,7.16 93.29,53.8 171.98,124.71 239.4,207.72 13.58,16.89 19.73,43.88 20.64,66.47 1.56,72.37 0.83,144.44 1.3,216.52 -0.11,19.39 -0.11,38.03 0.54,57.21 0.55,21.21 12.4,42.79 20.39,69.06 10.64,-10.94 14.88,-13.3 16.08,-16.53 6.33,-22.31 12.94,-43.99 19.37,-66.19 31.78,-107.92 64.55,-215.63 89.72,-325.45 32.88,-142.51 -1.85,-269.98 -114.89,-369.15z"/>
   <path class="fil0" d="M2279.31 4790.95c-68.69,-102.37 -136.81,-205.58 -208.08,-306.52 -14.13,-20.46 -39.85,-35.9 -63.43,-46.54 -49.33,-22.78 -77.34,-10.28 -101.49,38.18 -24.24,47.58 -48.76,95.24 -73.46,143.16 -15.88,30.95 -31.57,62.37 -47.66,93.58 -22.31,43.52 -44.9,87.69 -63.43,123.51 80.25,17.99 158.39,35.82 237.07,53.62 35.09,8.17 71.45,14.89 105.97,24.23 89.91,24.71 164.48,74.21 188.06,175.31 5.78,0.11 11.3,-0.1 16.9,0.18 7.99,-85.84 16.71,-171.17 23.32,-257.48 1.3,-13.12 -5.78,-29.46 -13.77,-41.23z"/>
   <path class="fil0" d="M6839.28 6556.63c1.49,-1.27 2.03,-2.03 3.02,-3.2 -1.53,0.81 -2.55,1.38 -4.03,2.29 0.46,0.45 0.46,0.73 1.01,0.91z"/>
   <path class="fil0" d="M7081.95 6179.1c16.9,-40.58 -3.12,-64.08 -45.91,-59.94 -100.48,8.79 -200.74,20.74 -300.56,30.95 -111.38,12.02 -179.71,81.62 -209.91,180.61 -29.75,97.51 -40.68,201 -60.05,302.1 4.04,0.91 7.79,2.11 11.85,3.78 26.52,-26.37 51.87,-53.55 79.6,-78.53 109.19,-98.24 168.41,-99.44 281.35,-2.3 1.38,-0.91 2.39,-1.56 4.06,-2.36 111.46,-105.24 181.24,-236.27 239.57,-374.31z"/>
   <path class="fil0" d="M7731.99 5646.9c-121.3,31.03 -235.36,58.39 -346.45,90.72 -56.57,16.89 -90.2,59.32 -99.46,120.93 -16.35,105.7 -36.08,211.31 -54.53,316.73 -3.96,22.56 -9.3,45.26 -14.16,67.75 4.06,1.56 8.35,2.66 11.94,4.97 19.55,-34.54 43.08,-66.87 57.29,-102.29 10.21,-27.39 22.6,-28.01 47.12,-25.17 26.37,2.47 52.89,1.92 79.7,3.02 26.63,1.48 53.36,5.44 79.62,3.12 47.38,-3.49 84.76,-29.57 97.87,-81.34 8.65,-32.62 22.96,-63.1 36,-94.13 41.34,-100.37 83.95,-200.55 130.41,-310.92 -9.11,2.55 -16.45,4.4 -25.35,6.61z"/>
   <path class="fil0" d="M6266.29 2200.89l-20.19 -15.15 -13.12 21.58c-116.62,190.82 -258.87,279.71 -447.76,279.71 -350.96,0 -475.46,-323.23 -475.46,-600.08 0,-530.41 258.58,-641.68 475.46,-641.68 222.68,0 354.65,122.94 403.22,375.92l3.57 18.66 19.02 0 41.5 0 22.95 0 0 -22.96c0,-132.41 0,-257.48 -57.21,-326.17 -88.06,-107.53 -277.86,-174.48 -495.39,-174.48 -367.67,0 -666.75,345.72 -666.75,770.71 0,429.27 274.2,729.08 666.75,729.08 281.45,0 463.89,-109.45 591.54,-355.07l9.01 -17.28 -15.62 -11.66 -41.52 -31.13z"/>
   <path class="fil0" d="M6711.06 2050.88l224.22 -520.3 215.34 520.3 -439.56 0zm796.29 232.31l-456.92 -1111.19 -5.78 -14.32 -15.43 0 -62.26 0 -15.23 0 -5.88 14.05 -581.63 1370.77 -13.59 31.96 34.7 0 93.57 0 15.26 0 5.88 -14.05 160.24 -380.53 550.57 0 46.1 120.39c90.17,235.25 253.45,284.66 374.56,284.66 32.41,0 65.94,-4.22 89.81,-11.48l16.34 -4.87 0 -17.08 0 -41.49 0 -21.03 -21.03 -1.85c-101.93,-9.26 -146.83,-52.97 -209.28,-203.94z"/>
   <path class="fil0" d="M8078.13 1292.33c37.19,-7.99 88.71,-15.9 132.88,-15.9 93.65,0 298.89,70.07 298.89,278.15 0,200.45 -205.24,267.87 -298.89,267.87 -44.17,0 -95.79,-7.92 -132.88,-15.99l0 -514.13zm567.94 967.02l-201.92 -336.56c209.18,-53.88 319.46,-180.7 319.46,-368.21 0,-252.26 -197.69,-396.88 -542.24,-396.88l-540.04 0 -22.93 0 0 22.96 0 41.6 0 22.96 22.93 0 41.52 0c92.74,0 122.42,45 122.42,184.75l0 1121.56 0 22.96 22.96 0 186.94 0 22.96 0 0 -22.96 0 -610.47 109.27 0 201.1 341.79c138.12,233.62 237.47,312.38 393.65,312.38 51.61,0 108.36,-9.73 134.99,-23.21l12.59 -6.43 0 -14.06 0 -41.49 0 -20.85 -20.66 -2.03c-89.18,-8.8 -154.36,-46.46 -263,-227.81z"/>
   <path class="fil0" d="M10059.49 1286.76l0 -22.96 0 -83.09 0 -22.95 -22.96 0 -965.85 0c-130.48,0 -199.43,65.46 -199.43,189.15l0 155.74 0 22.96 22.95 0 41.52 0 22.96 0 0 -22.96c0,-147.28 75.2,-215.89 236.71,-215.89l163.91 0 0 1264.72 0 22.96 22.96 0 186.86 0 22.96 0 0 -22.96 0 -1264.72 444.45 0 22.96 0z"/>
   <path class="fil0" d="M10245.73 2050.88l224.32 -520.3 215.35 520.3 -439.67 0zm1005.68 436.25c-101.83,-9.26 -146.84,-52.97 -209.28,-203.94l-456.92 -1111.19 -5.78 -14.32 -15.44 0 -62.26 0 -15.23 0 -5.88 14.05 -581.63 1370.77 -13.58 31.96 34.69 0 93.5 0 15.23 0 5.88 -14.05 160.24 -380.53 550.6 0 46.28 120.39c90.06,235.25 253.35,284.66 374.54,284.66 32.43,0 65.85,-4.22 89.72,-11.48l16.35 -4.87 0 -17.08 0 -41.49 0 -21.03 -21.03 -1.85z"/>
   <path class="fil0" d="M4029.84 3684.02l189.45 0c183.45,0 401.99,50.32 401.99,290.18 0,187.05 -142.69,290.07 -401.99,290.07 -59.98,0 -129.58,-9.45 -189.45,-25.53l0 -554.72zm144.8 -693.19c152.62,0 379.62,74.29 379.62,278.88 0,191.63 -173.64,278.85 -334.97,278.85l-189.45 0 0 -540.19c40.22,-8.82 96.6,-17.54 144.8,-17.54zm405.8 606.77c150.4,-69.86 232.13,-180.33 232.13,-316.7 0,-189.08 -108.72,-414.41 -626.71,-414.41l-581.55 0 -22.96 0 0 22.96 0 44.82 0 22.96 22.96 0 44.83 0c101.09,0 133.5,48.75 133.5,200.63l0 1207.69 0 22.96 22.96 0 447.29 0c417.43,0 638.01,-147.2 638.01,-425.61 0,-198.99 -96.52,-313.86 -310.46,-365.3z"/>
   <path class="fil0" d="M5547.75 4297.85c-101.18,0 -133.61,-48.78 -133.61,-200.74l0 -1207.69 0 -22.96 -22.96 0 -201.28 0 -22.93 0 0 22.96 0 1207.69c0,228.82 48.1,291.37 224.21,291.37l201.29 0 22.96 0 0 -22.96 0 -44.71 0 -22.96 -22.96 0 -44.72 0z"/>
   <path class="fil0" d="M6093.9 3008.32c40.24,-8.82 96.62,-17.44 144.83,-17.44 101.46,0 323.68,75.85 323.68,301.09 0,217.08 -222.22,290.17 -323.68,290.17 -48.86,0 -104.98,-8.72 -144.83,-17.54l0 -556.28zm611.75 1043.34l-218.63 -364.28c225.89,-57.47 345,-193.76 345,-395.41 0,-270.32 -212.14,-425.51 -582.1,-425.51l-581.52 0 -22.96 0 0 22.96 0 44.8 0 22.95 22.96 0 44.79 0c101.02,0 133.54,48.86 133.54,200.64l0 1207.71 0 22.96 22.95 0 201.26 0 22.96 0 0 -22.96 0 -659.04 120.49 0 217.06 368.69c148.14,251.05 254.75,335.7 422.23,335.7 55.18,0 115.98,-10.47 144.62,-24.78l12.59 -6.35 0 -14.22 0 -44.71 0 -20.85 -20.56 -2.03c-96.62,-9.63 -167.13,-50.32 -284.68,-246.27z"/>
   <path class="fil0" d="M8695.36 3828.22l244.27 -566.58 234.42 566.58 -478.69 0zm-1272.99 -819.92c40.14,-8.72 96.41,-17.44 144.72,-17.44 101.28,0 323.68,75.85 323.68,301.08 0,217.09 -222.4,290.18 -323.68,290.18 -48.93,0 -105.05,-8.62 -144.72,-17.44l0 -556.38zm2358.37 1289.6c-110.65,-10 -159.4,-57.47 -226.82,-220.65l-491.98 -1196.5 -5.81 -14.31 -15.33 0 -67.21 0 -15.15 0 -5.88 14.03 -613.3 1445.54 0 -5.23 0 -20.77 -20.75 -2.11c-96.41,-9.55 -166.95,-50.31 -284.48,-246.19l-218.75 -364.36c225.91,-57.47 345,-193.76 345,-395.41 0,-270.32 -212.2,-425.5 -582.07,-425.5l-581.45 0 -22.96 0 0 22.95 0 44.9 0 22.96 22.96 0 44.72 0c101.1,0 133.5,48.76 133.5,200.53l0 1207.8 0 22.95 22.96 0 201.47 0 22.96 0 0 -22.95 0 -659.12 120.28 0 217.09 368.68c148.31,251.05 254.82,335.81 422.3,335.81 51.9,0 107.63,-9.48 138.03,-22.42l27.36 0 100.63 0 15.25 0 5.88 -14.13 173 -410.74 595.13 0 50.22 130.59c96.69,252.51 271.82,305.58 401.73,305.58 34.62,0 70.62,-4.58 96.05,-12.31l16.35 -4.95 0 -16.99 0 -44.8 0 -20.95 -20.93 -1.93z"/>
   <path class="fil0" d="M7688.68 4576.18c-37.57,190.28 -130.13,363.09 -281.1,516.43 -195.22,198.34 -437.71,318 -700.35,399.91 -242.77,76.22 -492.55,113.31 -761.33,126.35 -555.18,20.02 -1107.32,-74.94 -1643.76,-264.56 -374.85,-132.78 -729.22,-305.59 -1055.65,-533.22 -323.97,-226.82 -612.11,-489.17 -825.71,-825.44 -148.37,-232.86 -250.4,-483.08 -251.42,-763.99 -0.55,-293.75 111.67,-541.39 323.7,-743.8 219.01,-209.35 485.66,-329.27 773.91,-406.86 393.75,-105.79 794.39,-122.32 1197.69,-81.74 107.61,10.83 311.94,32.41 417.26,49.88 0,0 -12.13,-112.32 -13.51,-157.22 -197.41,-32.88 -614.04,-60.42 -647.28,-60.42 -33.13,0 -96.33,-4.6 -144.62,-7.34 -115.44,5.6 -324.87,15.23 -381.72,25.51 -56.85,10.21 -324.61,50.71 -483,91.65 -294.94,76.03 -567.96,201.65 -794.86,410.56 -3.02,2.84 -5.5,5.86 -8.72,8.99 -318.45,298.81 -444.9,665.93 -367.2,1100.18 52.42,292.65 188.61,547.45 366.75,780.89 270.87,355.17 610.99,631.86 993.55,857.46 653.52,385.5 1359.02,607.89 2116.51,663.07 370.06,26.63 737.18,4.98 1097.95,-86.57 292.2,-74.57 566.58,-189.81 799.91,-385.57 232.78,-195.62 377.5,-432.98 424.77,-714.15l-151.77 0z"/>
   <path class="fil0" d="M7396.47 4576.18c-73.35,151.78 -190.36,275.65 -315.61,388.44 -139.02,124.42 -317.06,179.24 -494.85,227.16 -288.97,78.32 -584.64,103.23 -883.28,101.02 -378.13,-2.76 -748.27,-51.33 -1107.14,-173.57 -403.84,-137.9 -780.33,-329.92 -1132.49,-568.48 -135.27,-92.38 -272.73,-186.14 -390,-299.62 -246.44,-237 -402.83,-531.97 -498.88,-859.13 -55.36,-186.97 -67.75,-372.54 13.41,-556.2 52.89,-118.28 125.98,-222.21 212.11,-318.08 15.07,-17 38.66,-35.9 16.17,-56.85 -8.83,-8.36 -41.68,-1.28 -55.92,8.82 -64,44.62 -131.42,86.4 -186.24,140.95 -196.41,196.89 -232.31,444.9 -192.35,703.94 32.77,209.65 117.44,405.13 219.63,590.72 143.63,262.35 329.56,488.23 575.67,661.43 220.18,154.83 446.46,300.17 684.65,426.44 628.46,333.34 1293.1,511.74 1893.83,478.58 389.14,-10.18 659.66,-46.9 923.76,-122.1 269.25,-77.23 513.3,-195.98 685.3,-427.93 61.17,-82.82 127.47,-165.47 169.87,-258.11 13.23,-28.76 23.14,-57.96 31.5,-87.43l-169.14 0z"/>
  </g>
 </g>
</svg>
