<svg width="574" height="245" viewBox="0 0 574 245" fill="none" xmlns="http://www.w3.org/2000/svg">
<line x1="2" y1="193" x2="2.00001" y2="4" stroke="white" stroke-width="4"/>
<line x1="-1.74846e-07" y1="1.99976" x2="574" y2="1.99971" stroke="white" stroke-width="4"/>
<line x1="572" y1="4" x2="572" y2="194" stroke="white" stroke-width="4"/>
<line x1="574" y1="195" x2="505" y2="195" stroke="white" stroke-width="4"/>
<path d="M68 193L-1.90735e-06 193" stroke="white" stroke-width="4"/>
<path d="M125.87 156.96L117.661 223.718H112.943L116.859 191.966C113.493 193.004 110.207 193.854 106.998 194.514C103.822 195.175 100.818 195.568 97.9873 195.694C95.1881 195.819 92.6404 195.631 90.3444 195.127C88.0798 194.593 86.1769 193.665 84.6357 192.344C83.0946 190.991 81.978 189.183 81.286 186.918C80.6255 184.654 80.5155 181.839 80.9558 178.473L83.5506 156.96H88.3157L85.6265 178.473C85.1547 182.279 85.5636 185.236 86.8531 187.343C88.1427 189.419 90.1557 190.803 92.892 191.495C95.6598 192.187 99.1039 192.25 103.224 191.683C107.344 191.086 112.031 190.001 117.283 188.428L121.152 156.96H125.87ZM173.319 176.775L167.658 223.718H165.582C164.984 223.718 164.544 223.561 164.261 223.246C164.009 222.931 163.884 222.507 163.884 221.972L165.299 208.621C164.009 211.105 162.594 213.323 161.053 215.273C159.512 217.223 157.876 218.874 156.146 220.227C154.448 221.548 152.671 222.57 150.815 223.293C148.991 223.985 147.167 224.331 145.342 224.331C141.316 224.331 138.438 222.79 136.709 219.708C134.979 216.594 134.46 212.238 135.152 206.639L138.69 176.775H143.125L139.586 206.639C139.052 211.137 139.351 214.597 140.483 217.018C141.615 219.409 143.738 220.604 146.852 220.604C148.582 220.604 150.328 220.164 152.089 219.283C153.882 218.402 155.612 217.144 157.279 215.509C158.945 213.842 160.518 211.86 161.996 209.564C163.475 207.237 164.78 204.626 165.912 201.732L168.884 176.775H173.319ZM216.122 215.131C214.455 216.987 212.867 218.512 211.357 219.708C209.879 220.903 208.416 221.846 206.97 222.538C205.554 223.23 204.107 223.702 202.629 223.954C201.151 224.205 199.578 224.331 197.911 224.331C195.206 224.331 192.847 223.875 190.834 222.963C188.853 222.019 187.202 220.714 185.881 219.047C184.56 217.38 183.569 215.399 182.908 213.103C182.248 210.807 181.918 208.306 181.918 205.601C181.918 203.116 182.169 200.663 182.672 198.241C183.207 195.788 183.962 193.46 184.937 191.259C185.912 189.057 187.092 187.028 188.475 185.173C189.859 183.317 191.416 181.713 193.146 180.36C194.876 179.008 196.747 177.954 198.76 177.2C200.805 176.413 202.975 176.02 205.271 176.02C206.812 176.02 208.196 176.177 209.423 176.492C210.681 176.775 211.829 177.2 212.867 177.766C213.905 178.3 214.848 178.961 215.698 179.747C216.547 180.533 217.333 181.414 218.057 182.389L216.736 183.946C216.452 184.292 216.122 184.465 215.745 184.465C215.43 184.465 215.037 184.213 214.565 183.71C214.125 183.207 213.512 182.672 212.725 182.106C211.97 181.508 210.98 180.958 209.753 180.455C208.526 179.952 206.985 179.7 205.13 179.7C202.488 179.7 200.019 180.408 197.723 181.823C195.458 183.238 193.476 185.141 191.778 187.532C190.111 189.922 188.79 192.69 187.815 195.835C186.871 198.949 186.4 202.204 186.4 205.601C186.4 207.771 186.635 209.784 187.107 211.64C187.611 213.496 188.365 215.1 189.372 216.452C190.41 217.805 191.699 218.858 193.241 219.613C194.782 220.368 196.606 220.746 198.713 220.746C200.38 220.746 201.874 220.573 203.195 220.227C204.516 219.849 205.68 219.393 206.686 218.858C207.724 218.324 208.621 217.742 209.376 217.113C210.162 216.452 210.854 215.855 211.452 215.32C212.049 214.785 212.552 214.345 212.961 213.999C213.402 213.622 213.795 213.433 214.141 213.433C214.487 213.433 214.817 213.59 215.131 213.905L216.122 215.131ZM225.094 223.718L230.755 176.633H232.784C233.885 176.633 234.435 177.2 234.435 178.332L233.114 191.447C235.567 186.572 238.398 182.798 241.606 180.125C244.814 177.42 248.195 176.067 251.75 176.067C253.574 176.067 255.084 176.397 256.279 177.058C257.474 177.718 258.402 178.693 259.062 179.983C259.723 181.241 260.147 182.798 260.336 184.654C260.525 186.509 260.525 188.632 260.336 191.023C261.563 188.507 262.899 186.321 264.346 184.465C265.825 182.578 267.366 181.021 268.97 179.794C270.605 178.536 272.272 177.608 273.971 177.011C275.669 176.382 277.352 176.067 279.019 176.067C281.063 176.067 282.746 176.46 284.067 177.247C285.42 178.033 286.457 179.181 287.181 180.691C287.904 182.2 288.329 184.056 288.455 186.258C288.612 188.428 288.518 190.913 288.172 193.712L284.633 223.718H280.246L283.784 193.712C284.067 191.479 284.177 189.497 284.114 187.768C284.083 186.038 283.831 184.591 283.359 183.427C282.919 182.232 282.227 181.336 281.283 180.738C280.371 180.14 279.145 179.842 277.604 179.842C276.062 179.842 274.49 180.203 272.886 180.927C271.313 181.619 269.756 182.672 268.215 184.088C266.705 185.503 265.258 187.28 263.875 189.419C262.522 191.558 261.295 194.074 260.195 196.967L257.034 223.718H252.646L256.184 193.712C256.467 191.479 256.609 189.497 256.609 187.768C256.609 186.038 256.405 184.591 255.996 183.427C255.587 182.232 254.926 181.336 254.014 180.738C253.133 180.14 251.923 179.842 250.381 179.842C246.796 179.842 243.478 181.477 240.427 184.748C237.407 188.019 234.749 192.643 232.453 198.619L229.481 223.718H225.094ZM315.703 220.793C318.439 220.793 320.924 220.085 323.157 218.67C325.421 217.223 327.356 215.32 328.96 212.961C330.564 210.571 331.791 207.85 332.64 204.799C333.52 201.717 333.961 198.556 333.961 195.316C333.961 190.284 332.844 186.415 330.611 183.71C328.378 181.005 325.28 179.653 321.317 179.653C318.581 179.653 316.08 180.36 313.815 181.776C311.582 183.191 309.664 185.078 308.06 187.437C306.487 189.765 305.26 192.454 304.38 195.505C303.499 198.556 303.059 201.732 303.059 205.035C303.059 210.036 304.16 213.92 306.361 216.688C308.594 219.425 311.708 220.793 315.703 220.793ZM315.325 224.331C312.809 224.331 310.513 223.891 308.437 223.01C306.393 222.129 304.631 220.856 303.153 219.189C301.706 217.522 300.574 215.509 299.756 213.15C298.97 210.759 298.577 208.054 298.577 205.035C298.577 201.229 299.143 197.581 300.275 194.09C301.407 190.598 302.996 187.516 305.04 184.842C307.116 182.169 309.569 180.046 312.4 178.473C315.231 176.869 318.345 176.067 321.741 176.067C324.258 176.067 326.538 176.508 328.582 177.388C330.658 178.269 332.42 179.543 333.866 181.21C335.345 182.877 336.477 184.905 337.263 187.296C338.081 189.655 338.49 192.312 338.49 195.269C338.49 199.075 337.908 202.723 336.744 206.214C335.612 209.706 334.024 212.804 331.979 215.509C329.935 218.182 327.497 220.321 324.667 221.925C321.836 223.529 318.722 224.331 315.325 224.331ZM351.388 202.251C351.199 203.667 351.105 205.066 351.105 206.45C351.074 208.526 351.31 210.461 351.813 212.253C352.316 214.015 353.055 215.54 354.03 216.83C355.037 218.119 356.279 219.126 357.757 219.849C359.236 220.573 360.965 220.934 362.947 220.934C364.866 220.903 366.69 220.541 368.42 219.849C370.15 219.157 371.659 218.229 372.949 217.066C374.27 215.87 375.308 214.502 376.063 212.961C376.849 211.388 377.242 209.737 377.242 208.007C377.242 206.623 376.991 205.334 376.487 204.139C375.984 202.943 375.166 201.968 374.034 201.213C372.902 200.427 371.392 199.924 369.505 199.704C367.649 199.452 365.353 199.578 362.617 200.081L351.388 202.251ZM361.532 197.392C365.149 196.732 368.042 195.961 370.213 195.08C372.414 194.168 374.097 193.209 375.261 192.202C376.456 191.164 377.242 190.111 377.62 189.041C378.028 187.972 378.233 186.918 378.233 185.88C378.233 185.157 378.107 184.418 377.855 183.663C377.604 182.877 377.164 182.169 376.534 181.54C375.937 180.879 375.135 180.345 374.128 179.936C373.122 179.527 371.864 179.323 370.354 179.323C367.964 179.323 365.762 179.873 363.749 180.974C361.736 182.043 359.928 183.506 358.323 185.361C356.751 187.186 355.414 189.309 354.313 191.731C353.212 194.121 352.395 196.653 351.86 199.326L361.532 197.392ZM369.127 197.722C373.059 197.659 376.078 198.524 378.186 200.317C380.325 202.11 381.394 204.658 381.394 207.96C381.394 210.13 380.891 212.206 379.884 214.188C378.909 216.169 377.572 217.915 375.874 219.425C374.176 220.934 372.178 222.145 369.882 223.057C367.586 223.938 365.117 224.378 362.475 224.378C359.896 224.378 357.616 223.938 355.634 223.057C353.684 222.177 352.033 220.966 350.681 219.425C349.359 217.852 348.353 216.012 347.661 213.905C347.001 211.766 346.67 209.454 346.67 206.969C346.67 204.453 346.922 201.953 347.425 199.468C347.96 196.952 348.715 194.561 349.69 192.297C350.696 190.001 351.907 187.878 353.323 185.928C354.769 183.946 356.389 182.232 358.182 180.785C359.975 179.338 361.925 178.206 364.032 177.388C366.171 176.57 368.451 176.162 370.873 176.162C372.855 176.162 374.553 176.429 375.968 176.964C377.384 177.498 378.532 178.206 379.412 179.087C380.325 179.936 380.985 180.895 381.394 181.965C381.803 183.034 382.007 184.103 382.007 185.173C382.007 186.399 381.787 187.61 381.347 188.805C380.938 190.001 380.23 191.149 379.224 192.25C378.217 193.319 376.88 194.325 375.213 195.269C373.578 196.213 371.549 197.03 369.127 197.722ZM431.052 176.775L425.39 223.718H423.314C422.717 223.718 422.277 223.561 421.993 223.246C421.742 222.931 421.616 222.507 421.616 221.972L423.031 208.621C421.742 211.105 420.326 213.323 418.785 215.273C417.244 217.223 415.609 218.874 413.879 220.227C412.18 221.548 410.403 222.57 408.547 223.293C406.723 223.985 404.899 224.331 403.075 224.331C399.049 224.331 396.171 222.79 394.441 219.708C392.711 216.594 392.192 212.238 392.884 206.639L396.423 176.775H400.857L397.319 206.639C396.784 211.137 397.083 214.597 398.215 217.018C399.348 219.409 401.471 220.604 404.584 220.604C406.314 220.604 408.06 220.164 409.821 219.283C411.614 218.402 413.344 217.144 415.011 215.509C416.678 213.842 418.251 211.86 419.729 209.564C421.207 207.237 422.512 204.626 423.645 201.732L426.617 176.775H431.052ZM469.656 185.267C468.775 186.305 467.863 187.154 466.919 187.815C466.007 188.444 464.954 188.931 463.758 189.277C465.079 189.56 466.133 190.064 466.919 190.787C467.737 191.51 468.508 192.517 469.231 193.806L487.442 223.718H483.338C482.74 223.718 482.268 223.576 481.922 223.293C481.576 223.01 481.23 222.57 480.884 221.972L464.277 194.797C463.931 194.231 463.585 193.744 463.239 193.335C462.925 192.894 462.548 192.548 462.107 192.297C461.667 192.014 461.148 191.809 460.55 191.683C459.984 191.558 459.292 191.495 458.474 191.495H450.548L446.585 223.718H441.868L450.077 156.96H454.747L450.973 187.862H458.05C458.773 187.862 459.434 187.815 460.031 187.72C460.629 187.626 461.195 187.453 461.73 187.201C462.296 186.95 462.846 186.604 463.381 186.163C463.947 185.723 464.529 185.157 465.127 184.465L487.395 158.47C487.741 158.029 488.134 157.667 488.574 157.384C489.046 157.101 489.55 156.96 490.084 156.96H493.953L469.656 185.267Z" fill="white"/>
<path d="M284.785 63.9493C284.785 63.9493 305.069 35.9106 291.686 16.5409C286.556 9.11809 275.594 6.77717 267.199 11.3122C261.184 14.5619 258.12 20.4601 258.753 26.2731C253.192 23.1222 245.859 22.8411 239.844 26.0902C231.449 30.6252 228.801 40.3187 233.93 47.7418C247.313 67.1115 284.785 63.9493 284.785 63.9493Z" fill="#1EC515"/>
<path d="M293.174 76.0903C293.174 76.0903 272.89 104.128 286.273 123.499C291.402 130.922 302.365 133.263 310.76 128.727C316.775 125.478 319.839 119.58 319.205 113.766C324.766 116.918 332.1 117.199 338.114 113.949C346.509 109.414 349.157 99.7206 344.028 92.2985C330.645 72.9278 293.174 76.0903 293.174 76.0903Z" fill="#1EC515"/>
<path d="M355.374 50.7612C351.699 45.442 345.028 42.7328 338.454 43.293C342.018 38.3758 342.336 31.8916 338.661 26.5727C333.532 19.1499 322.57 16.8087 314.175 21.3434C292.27 33.1776 295.845 66.3111 295.845 66.3111C295.845 66.3111 327.554 84.2467 349.461 72.4128C357.854 67.8778 360.502 58.184 355.374 50.7612Z" fill="#1EC515"/>
<path d="M239.505 96.7468C235.941 101.664 235.623 108.148 239.299 113.467C244.427 120.89 255.39 123.23 263.784 118.696C285.691 106.862 282.115 73.7281 282.115 73.7281C282.115 73.7281 250.405 55.7925 228.499 67.627C220.104 72.1617 217.456 81.8555 222.586 89.2783C226.261 94.5975 232.931 97.3066 239.505 96.7468Z" fill="#1EC515"/>
<path d="M276.643 114.017C276.398 114.5 276.146 115.038 275.84 115.611C275.522 116.18 275.203 116.8 274.802 117.439C274.04 118.729 273.088 120.137 271.954 121.602C270.823 123.069 269.504 124.591 268.004 126.109C266.504 127.628 264.824 129.143 262.994 130.614C261.165 132.085 259.187 133.511 257.105 134.868C255.019 136.222 252.826 137.504 250.582 138.706C246.094 141.112 241.38 143.173 236.862 144.878C232.345 146.587 228.021 147.94 224.291 148.977C220.559 150.013 217.419 150.73 215.251 151.179C214.167 151.403 213.325 151.561 212.772 151.657C212.506 151.701 212.302 151.734 212.165 151.757C212.094 151.769 212.072 151.769 212.052 151.77C212.033 151.771 211.996 151.778 212 151.777L217.323 167.413C217.323 167.413 217.43 167.376 217.638 167.304C217.816 167.237 218.081 167.138 218.427 167.01C219.091 166.754 220.032 166.381 221.202 165.894C223.541 164.917 226.795 163.474 230.574 161.584C234.352 159.692 238.657 157.353 243.071 154.596C247.485 151.844 252.01 148.675 256.2 145.185C258.296 143.441 260.311 141.623 262.191 139.754C264.067 137.882 265.809 135.962 267.374 134.033C268.941 132.104 270.328 130.167 271.517 128.274C272.707 126.383 273.696 124.538 274.499 122.804C275.303 121.071 275.927 119.452 276.384 117.999C276.631 117.278 276.805 116.588 276.985 115.961C277.153 115.329 277.276 114.743 277.402 114.219C277.612 113.161 277.765 112.334 277.835 111.765C277.915 111.2 277.958 110.898 277.958 110.898C277.958 110.898 277.844 111.185 277.633 111.724C277.434 112.262 277.089 113.04 276.643 114.017Z" fill="#1EC515"/>
</svg>
