<svg width="579" height="247" viewBox="0 0 579 247" fill="none" xmlns="http://www.w3.org/2000/svg">
<line x1="3" y1="198" x2="3.00001" y2="-1.31134e-07" stroke="white" stroke-width="6"/>
<line x1="2" y1="2.99976" x2="576" y2="2.99971" stroke="white" stroke-width="6"/>
<line x1="576" y1="0.0149252" x2="575" y2="201.015" stroke="white" stroke-width="6"/>
<line x1="576" y1="198" x2="507" y2="198" stroke="white" stroke-width="6"/>
<path d="M70 195L2 195" stroke="white" stroke-width="6"/>
<path d="M127.87 158.96L119.661 225.718H114.943L118.859 193.966C115.493 195.004 112.207 195.854 108.998 196.514C105.822 197.175 102.818 197.568 99.9873 197.694C97.1881 197.819 94.6404 197.631 92.3444 197.127C90.0798 196.593 88.1769 195.665 86.6357 194.344C85.0946 192.991 83.978 191.183 83.286 188.918C82.6255 186.654 82.5155 183.839 82.9558 180.473L85.5506 158.96H90.3157L87.6265 180.473C87.1547 184.279 87.5636 187.236 88.8531 189.343C90.1427 191.419 92.1557 192.803 94.892 193.495C97.6598 194.187 101.104 194.25 105.224 193.683C109.344 193.086 114.031 192.001 119.283 190.428L123.152 158.96H127.87ZM175.319 178.775L169.658 225.718H167.582C166.984 225.718 166.544 225.561 166.261 225.246C166.009 224.931 165.884 224.507 165.884 223.972L167.299 210.621C166.009 213.105 164.594 215.323 163.053 217.273C161.512 219.223 159.876 220.874 158.146 222.227C156.448 223.548 154.671 224.57 152.815 225.293C150.991 225.985 149.167 226.331 147.342 226.331C143.316 226.331 140.438 224.79 138.709 221.708C136.979 218.594 136.46 214.238 137.152 208.639L140.69 178.775H145.125L141.586 208.639C141.052 213.137 141.351 216.597 142.483 219.018C143.615 221.409 145.738 222.604 148.852 222.604C150.582 222.604 152.328 222.164 154.089 221.283C155.882 220.402 157.612 219.144 159.279 217.509C160.945 215.842 162.518 213.86 163.996 211.564C165.475 209.237 166.78 206.626 167.912 203.732L170.884 178.775H175.319ZM218.122 217.131C216.455 218.987 214.867 220.512 213.357 221.708C211.879 222.903 210.416 223.846 208.97 224.538C207.554 225.23 206.107 225.702 204.629 225.954C203.151 226.205 201.578 226.331 199.911 226.331C197.206 226.331 194.847 225.875 192.834 224.963C190.853 224.019 189.202 222.714 187.881 221.047C186.56 219.38 185.569 217.399 184.908 215.103C184.248 212.807 183.918 210.306 183.918 207.601C183.918 205.116 184.169 202.663 184.672 200.241C185.207 197.788 185.962 195.46 186.937 193.259C187.912 191.057 189.092 189.028 190.475 187.173C191.859 185.317 193.416 183.713 195.146 182.36C196.876 181.008 198.747 179.954 200.76 179.2C202.805 178.413 204.975 178.02 207.271 178.02C208.812 178.02 210.196 178.177 211.423 178.492C212.681 178.775 213.829 179.2 214.867 179.766C215.905 180.3 216.848 180.961 217.698 181.747C218.547 182.533 219.333 183.414 220.057 184.389L218.736 185.946C218.452 186.292 218.122 186.465 217.745 186.465C217.43 186.465 217.037 186.213 216.565 185.71C216.125 185.207 215.512 184.672 214.725 184.106C213.97 183.508 212.98 182.958 211.753 182.455C210.526 181.952 208.985 181.7 207.13 181.7C204.488 181.7 202.019 182.408 199.723 183.823C197.458 185.238 195.476 187.141 193.778 189.532C192.111 191.922 190.79 194.69 189.815 197.835C188.871 200.949 188.4 204.204 188.4 207.601C188.4 209.771 188.635 211.784 189.107 213.64C189.611 215.496 190.365 217.1 191.372 218.452C192.41 219.805 193.699 220.858 195.241 221.613C196.782 222.368 198.606 222.746 200.713 222.746C202.38 222.746 203.874 222.573 205.195 222.227C206.516 221.849 207.68 221.393 208.686 220.858C209.724 220.324 210.621 219.742 211.376 219.113C212.162 218.452 212.854 217.855 213.452 217.32C214.049 216.785 214.552 216.345 214.961 215.999C215.402 215.622 215.795 215.433 216.141 215.433C216.487 215.433 216.817 215.59 217.131 215.905L218.122 217.131ZM227.094 225.718L232.755 178.633H234.784C235.885 178.633 236.435 179.2 236.435 180.332L235.114 193.447C237.567 188.572 240.398 184.798 243.606 182.125C246.814 179.42 250.195 178.067 253.75 178.067C255.574 178.067 257.084 178.397 258.279 179.058C259.474 179.718 260.402 180.693 261.062 181.983C261.723 183.241 262.147 184.798 262.336 186.654C262.525 188.509 262.525 190.632 262.336 193.023C263.563 190.507 264.899 188.321 266.346 186.465C267.825 184.578 269.366 183.021 270.97 181.794C272.605 180.536 274.272 179.608 275.971 179.011C277.669 178.382 279.352 178.067 281.019 178.067C283.063 178.067 284.746 178.46 286.067 179.247C287.42 180.033 288.457 181.181 289.181 182.691C289.904 184.2 290.329 186.056 290.455 188.258C290.612 190.428 290.518 192.913 290.172 195.712L286.633 225.718H282.246L285.784 195.712C286.067 193.479 286.177 191.497 286.114 189.768C286.083 188.038 285.831 186.591 285.359 185.427C284.919 184.232 284.227 183.336 283.283 182.738C282.371 182.14 281.145 181.842 279.604 181.842C278.062 181.842 276.49 182.203 274.886 182.927C273.313 183.619 271.756 184.672 270.215 186.088C268.705 187.503 267.258 189.28 265.875 191.419C264.522 193.558 263.295 196.074 262.195 198.967L259.034 225.718H254.646L258.184 195.712C258.467 193.479 258.609 191.497 258.609 189.768C258.609 188.038 258.405 186.591 257.996 185.427C257.587 184.232 256.926 183.336 256.014 182.738C255.133 182.14 253.923 181.842 252.381 181.842C248.796 181.842 245.478 183.477 242.427 186.748C239.407 190.019 236.749 194.643 234.453 200.619L231.481 225.718H227.094ZM317.703 222.793C320.439 222.793 322.924 222.085 325.157 220.67C327.421 219.223 329.356 217.32 330.96 214.961C332.564 212.571 333.791 209.85 334.64 206.799C335.52 203.717 335.961 200.556 335.961 197.316C335.961 192.284 334.844 188.415 332.611 185.71C330.378 183.005 327.28 181.653 323.317 181.653C320.581 181.653 318.08 182.36 315.815 183.776C313.582 185.191 311.664 187.078 310.06 189.437C308.487 191.765 307.26 194.454 306.38 197.505C305.499 200.556 305.059 203.732 305.059 207.035C305.059 212.036 306.16 215.92 308.361 218.688C310.594 221.425 313.708 222.793 317.703 222.793ZM317.325 226.331C314.809 226.331 312.513 225.891 310.437 225.01C308.393 224.129 306.631 222.856 305.153 221.189C303.706 219.522 302.574 217.509 301.756 215.15C300.97 212.759 300.577 210.054 300.577 207.035C300.577 203.229 301.143 199.581 302.275 196.09C303.407 192.598 304.996 189.516 307.04 186.842C309.116 184.169 311.569 182.046 314.4 180.473C317.231 178.869 320.345 178.067 323.741 178.067C326.258 178.067 328.538 178.508 330.582 179.388C332.658 180.269 334.42 181.543 335.866 183.21C337.345 184.877 338.477 186.905 339.263 189.296C340.081 191.655 340.49 194.312 340.49 197.269C340.49 201.075 339.908 204.723 338.744 208.214C337.612 211.706 336.024 214.804 333.979 217.509C331.935 220.182 329.497 222.321 326.667 223.925C323.836 225.529 320.722 226.331 317.325 226.331ZM353.388 204.251C353.199 205.667 353.105 207.066 353.105 208.45C353.074 210.526 353.31 212.461 353.813 214.253C354.316 216.015 355.055 217.54 356.03 218.83C357.037 220.119 358.279 221.126 359.757 221.849C361.236 222.573 362.965 222.934 364.947 222.934C366.866 222.903 368.69 222.541 370.42 221.849C372.15 221.157 373.659 220.229 374.949 219.066C376.27 217.87 377.308 216.502 378.063 214.961C378.849 213.388 379.242 211.737 379.242 210.007C379.242 208.623 378.991 207.334 378.487 206.139C377.984 204.943 377.166 203.968 376.034 203.213C374.902 202.427 373.392 201.924 371.505 201.704C369.649 201.452 367.353 201.578 364.617 202.081L353.388 204.251ZM363.532 199.392C367.149 198.732 370.042 197.961 372.213 197.08C374.414 196.168 376.097 195.209 377.261 194.202C378.456 193.164 379.242 192.111 379.62 191.041C380.028 189.972 380.233 188.918 380.233 187.88C380.233 187.157 380.107 186.418 379.855 185.663C379.604 184.877 379.164 184.169 378.534 183.54C377.937 182.879 377.135 182.345 376.128 181.936C375.122 181.527 373.864 181.323 372.354 181.323C369.964 181.323 367.762 181.873 365.749 182.974C363.736 184.043 361.928 185.506 360.323 187.361C358.751 189.186 357.414 191.309 356.313 193.731C355.212 196.121 354.395 198.653 353.86 201.326L363.532 199.392ZM371.127 199.722C375.059 199.659 378.078 200.524 380.186 202.317C382.325 204.11 383.394 206.658 383.394 209.96C383.394 212.13 382.891 214.206 381.884 216.188C380.909 218.169 379.572 219.915 377.874 221.425C376.176 222.934 374.178 224.145 371.882 225.057C369.586 225.938 367.117 226.378 364.475 226.378C361.896 226.378 359.616 225.938 357.634 225.057C355.684 224.177 354.033 222.966 352.681 221.425C351.359 219.852 350.353 218.012 349.661 215.905C349.001 213.766 348.67 211.454 348.67 208.969C348.67 206.453 348.922 203.953 349.425 201.468C349.96 198.952 350.715 196.561 351.69 194.297C352.696 192.001 353.907 189.878 355.323 187.928C356.769 185.946 358.389 184.232 360.182 182.785C361.975 181.338 363.925 180.206 366.032 179.388C368.171 178.57 370.451 178.162 372.873 178.162C374.855 178.162 376.553 178.429 377.968 178.964C379.384 179.498 380.532 180.206 381.412 181.087C382.325 181.936 382.985 182.895 383.394 183.965C383.803 185.034 384.007 186.103 384.007 187.173C384.007 188.399 383.787 189.61 383.347 190.805C382.938 192.001 382.23 193.149 381.224 194.25C380.217 195.319 378.88 196.325 377.213 197.269C375.578 198.213 373.549 199.03 371.127 199.722ZM433.052 178.775L427.39 225.718H425.314C424.717 225.718 424.277 225.561 423.993 225.246C423.742 224.931 423.616 224.507 423.616 223.972L425.031 210.621C423.742 213.105 422.326 215.323 420.785 217.273C419.244 219.223 417.609 220.874 415.879 222.227C414.18 223.548 412.403 224.57 410.547 225.293C408.723 225.985 406.899 226.331 405.075 226.331C401.049 226.331 398.171 224.79 396.441 221.708C394.711 218.594 394.192 214.238 394.884 208.639L398.423 178.775H402.857L399.319 208.639C398.784 213.137 399.083 216.597 400.215 219.018C401.348 221.409 403.471 222.604 406.584 222.604C408.314 222.604 410.06 222.164 411.821 221.283C413.614 220.402 415.344 219.144 417.011 217.509C418.678 215.842 420.251 213.86 421.729 211.564C423.207 209.237 424.512 206.626 425.645 203.732L428.617 178.775H433.052ZM471.656 187.267C470.775 188.305 469.863 189.154 468.919 189.815C468.007 190.444 466.954 190.931 465.758 191.277C467.079 191.56 468.133 192.064 468.919 192.787C469.737 193.51 470.508 194.517 471.231 195.806L489.442 225.718H485.338C484.74 225.718 484.268 225.576 483.922 225.293C483.576 225.01 483.23 224.57 482.884 223.972L466.277 196.797C465.931 196.231 465.585 195.744 465.239 195.335C464.925 194.894 464.548 194.548 464.107 194.297C463.667 194.014 463.148 193.809 462.55 193.683C461.984 193.558 461.292 193.495 460.474 193.495H452.548L448.585 225.718H443.868L452.077 158.96H456.747L452.973 189.862H460.05C460.773 189.862 461.434 189.815 462.031 189.72C462.629 189.626 463.195 189.453 463.73 189.201C464.296 188.95 464.846 188.604 465.381 188.163C465.947 187.723 466.529 187.157 467.127 186.465L489.395 160.47C489.741 160.029 490.134 159.667 490.574 159.384C491.046 159.101 491.55 158.96 492.084 158.96H495.953L471.656 187.267Z" fill="white"/>
<path d="M286.785 65.9493C286.785 65.9493 307.069 37.9106 293.686 18.5409C288.556 11.1181 277.594 8.77717 269.199 13.3122C263.184 16.5619 260.12 22.4601 260.753 28.2731C255.192 25.1222 247.859 24.8411 241.844 28.0902C233.449 32.6252 230.801 42.3187 235.93 49.7418C249.313 69.1115 286.785 65.9493 286.785 65.9493Z" fill="#1EC515"/>
<path d="M295.174 78.0903C295.174 78.0903 274.89 106.128 288.273 125.499C293.402 132.922 304.365 135.263 312.76 130.727C318.775 127.478 321.839 121.58 321.205 115.766C326.766 118.918 334.1 119.199 340.114 115.949C348.509 111.414 351.157 101.721 346.028 94.2985C332.645 74.9278 295.174 78.0903 295.174 78.0903Z" fill="#1EC515"/>
<path d="M357.374 52.7612C353.699 47.442 347.028 44.7328 340.454 45.293C344.018 40.3758 344.336 33.8916 340.661 28.5727C335.532 21.1499 324.57 18.8087 316.175 23.3434C294.27 35.1776 297.845 68.3111 297.845 68.3111C297.845 68.3111 329.554 86.2467 351.461 74.4128C359.854 69.8778 362.502 60.184 357.374 52.7612Z" fill="#1EC515"/>
<path d="M241.505 98.7468C237.941 103.664 237.623 110.148 241.299 115.467C246.427 122.89 257.39 125.23 265.784 120.696C287.691 108.862 284.115 75.7281 284.115 75.7281C284.115 75.7281 252.405 57.7925 230.499 69.627C222.104 74.1617 219.456 83.8555 224.586 91.2783C228.261 96.5975 234.931 99.3066 241.505 98.7468Z" fill="#1EC515"/>
<path d="M278.643 116.017C278.398 116.5 278.146 117.038 277.84 117.611C277.522 118.18 277.203 118.8 276.802 119.439C276.04 120.729 275.088 122.137 273.954 123.602C272.823 125.069 271.504 126.591 270.004 128.109C268.504 129.628 266.824 131.143 264.994 132.614C263.165 134.085 261.187 135.511 259.105 136.868C257.019 138.222 254.826 139.504 252.582 140.706C248.094 143.112 243.38 145.173 238.862 146.878C234.345 148.587 230.021 149.94 226.291 150.977C222.559 152.013 219.419 152.73 217.251 153.179C216.167 153.403 215.325 153.561 214.772 153.657C214.506 153.701 214.302 153.734 214.165 153.757C214.094 153.769 214.072 153.769 214.052 153.77C214.033 153.771 213.996 153.778 214 153.777L219.323 169.413C219.323 169.413 219.43 169.376 219.638 169.304C219.816 169.237 220.081 169.138 220.427 169.01C221.091 168.754 222.032 168.381 223.202 167.894C225.541 166.917 228.795 165.474 232.574 163.584C236.352 161.692 240.657 159.353 245.071 156.596C249.485 153.844 254.01 150.675 258.2 147.185C260.296 145.441 262.311 143.623 264.191 141.754C266.067 139.882 267.809 137.962 269.374 136.033C270.941 134.104 272.328 132.167 273.517 130.274C274.707 128.383 275.696 126.538 276.499 124.804C277.303 123.071 277.927 121.452 278.384 119.999C278.631 119.278 278.805 118.588 278.985 117.961C279.153 117.329 279.276 116.743 279.402 116.219C279.612 115.161 279.765 114.334 279.835 113.765C279.915 113.2 279.958 112.898 279.958 112.898C279.958 112.898 279.844 113.185 279.633 113.724C279.434 114.262 279.089 115.04 278.643 116.017Z" fill="#1EC515"/>
</svg>
