<svg width="166" height="166" viewBox="0 0 166 166" fill="none" xmlns="http://www.w3.org/2000/svg">
<g clip-path="url(#clip0)">
<path d="M82.806 57.5812C82.806 57.5812 101.601 28.1995 89.2003 7.902C84.4474 0.123644 74.29 -2.32941 66.5116 2.42284C60.9376 5.82821 58.0987 12.0089 58.6857 18.1004C53.533 14.7985 46.7382 14.504 41.1642 17.9087C33.3859 22.6609 30.9328 32.8187 35.6847 40.5974C48.0858 60.8949 82.806 57.5812 82.806 57.5812Z" fill="#1EC515"/>
<path d="M90.5788 70.3036C90.5788 70.3036 71.7841 99.6846 84.1848 119.983C88.9374 127.761 99.0956 130.215 106.874 125.462C112.447 122.057 115.287 115.876 114.699 109.784C119.852 113.087 126.647 113.381 132.22 109.976C139.999 105.224 142.452 95.0657 137.7 87.2881C125.299 66.9895 90.5788 70.3036 90.5788 70.3036Z" fill="#1EC515"/>
<path d="M148.213 43.7614C144.807 38.1874 138.626 35.3485 132.535 35.9355C135.837 30.7828 136.132 23.988 132.727 18.4144C127.974 10.636 117.817 8.18263 110.038 12.9345C89.7414 25.3356 93.0537 60.0562 93.0537 60.0562C93.0537 60.0562 122.435 78.8509 142.733 66.4502C150.511 61.6979 152.964 51.5398 148.213 43.7614Z" fill="#1EC515"/>
<path d="M40.8506 91.9497C37.5484 97.102 37.2535 103.897 40.6592 109.47C45.4111 117.249 55.5692 119.702 63.3469 114.95C83.6454 102.549 80.3318 67.8283 80.3318 67.8283C80.3318 67.8283 50.9507 49.0336 30.6522 61.435C22.8742 66.1869 20.4208 76.345 25.1734 84.1234C28.5787 89.6974 34.7591 92.5363 40.8506 91.9497Z" fill="#1EC515"/>
<path d="M75.2617 110.047C75.0353 110.553 74.8019 111.117 74.5181 111.718C74.2229 112.313 73.9274 112.963 73.5561 113.633C72.85 114.985 71.9682 116.46 70.9172 117.995C69.8691 119.532 68.6469 121.127 67.2569 122.718C65.8677 124.31 64.311 125.897 62.6151 127.439C60.9206 128.98 59.0879 130.474 57.1585 131.897C55.2254 133.315 53.1937 134.659 51.1147 135.919C46.9556 138.439 42.5878 140.599 38.4017 142.386C34.2163 144.177 30.2094 145.595 26.7533 146.681C23.2951 147.767 20.3864 148.518 18.3772 148.989C17.3731 149.224 16.5931 149.389 16.0804 149.49C15.8342 149.536 15.6449 149.571 15.5181 149.594C15.4518 149.607 15.4313 149.607 15.4129 149.608C15.3952 149.609 15.3608 149.617 15.3653 149.616L20.2968 166C20.2968 166 20.3965 165.962 20.5892 165.886C20.7542 165.816 20.9997 165.712 21.32 165.578C21.9357 165.31 22.8075 164.92 23.8914 164.409C26.0587 163.385 29.074 161.873 32.5756 159.892C36.0758 157.91 40.0646 155.458 44.1549 152.57C48.2445 149.686 52.4376 146.365 56.3201 142.708C58.2623 140.88 60.1291 138.975 61.8709 137.017C63.6095 135.055 65.2231 133.043 66.6735 131.021C68.1252 129 69.4106 126.97 70.5123 124.987C71.6153 123.005 72.5315 121.072 73.2758 119.255C74.0208 117.439 74.5987 115.742 75.0217 114.22C75.251 113.464 75.4118 112.741 75.5788 112.084C75.7348 111.422 75.8487 110.807 75.9654 110.259C76.1602 109.15 76.3019 108.284 76.3662 107.687C76.4409 107.094 76.4801 106.778 76.4801 106.778C76.4801 106.778 76.3749 107.079 76.179 107.644C75.9946 108.208 75.675 109.023 75.2617 110.047Z" fill="#1EC515"/>
</g>
<defs>
<clipPath id="clip0">
<rect width="166" height="166" fill="white"/>
</clipPath>
</defs>
</svg>
