<svg width="570" height="243" viewBox="0 0 570 243" fill="none" xmlns="http://www.w3.org/2000/svg">
<line x1="1" y1="191" x2="1.00001" y2="2" stroke="white" stroke-width="2"/>
<line x1="1" y1="1" x2="569" y2="1.00005" stroke="white" stroke-width="2"/>
<line x1="569" y1="2" x2="569" y2="192" stroke="white" stroke-width="2"/>
<line x1="568" y1="192" x2="503" y2="192" stroke="white" stroke-width="2"/>
<path d="M66 191L1 191" stroke="white" stroke-width="2"/>
<path d="M123.87 154.96L115.661 221.718H110.943L114.859 189.966C111.493 191.004 108.207 191.854 104.998 192.514C101.822 193.175 98.8181 193.568 95.9873 193.694C93.1881 193.819 90.6404 193.631 88.3444 193.127C86.0798 192.593 84.1769 191.665 82.6357 190.344C81.0946 188.991 79.978 187.183 79.286 184.918C78.6255 182.654 78.5155 179.839 78.9558 176.473L81.5506 154.96H86.3157L83.6265 176.473C83.1547 180.279 83.5636 183.236 84.8531 185.343C86.1427 187.419 88.1557 188.803 90.892 189.495C93.6598 190.187 97.1039 190.25 101.224 189.683C105.344 189.086 110.031 188.001 115.283 186.428L119.152 154.96H123.87ZM171.319 174.775L165.658 221.718H163.582C162.984 221.718 162.544 221.561 162.261 221.246C162.009 220.931 161.884 220.507 161.884 219.972L163.299 206.621C162.009 209.105 160.594 211.323 159.053 213.273C157.512 215.223 155.876 216.874 154.146 218.227C152.448 219.548 150.671 220.57 148.815 221.293C146.991 221.985 145.167 222.331 143.342 222.331C139.316 222.331 136.438 220.79 134.709 217.708C132.979 214.594 132.46 210.238 133.152 204.639L136.69 174.775H141.125L137.586 204.639C137.052 209.137 137.351 212.597 138.483 215.018C139.615 217.409 141.738 218.604 144.852 218.604C146.582 218.604 148.328 218.164 150.089 217.283C151.882 216.402 153.612 215.144 155.279 213.509C156.945 211.842 158.518 209.86 159.996 207.564C161.475 205.237 162.78 202.626 163.912 199.732L166.884 174.775H171.319ZM214.122 213.131C212.455 214.987 210.867 216.512 209.357 217.708C207.879 218.903 206.416 219.846 204.97 220.538C203.554 221.23 202.107 221.702 200.629 221.954C199.151 222.205 197.578 222.331 195.911 222.331C193.206 222.331 190.847 221.875 188.834 220.963C186.853 220.019 185.202 218.714 183.881 217.047C182.56 215.38 181.569 213.399 180.908 211.103C180.248 208.807 179.918 206.306 179.918 203.601C179.918 201.116 180.169 198.663 180.672 196.241C181.207 193.788 181.962 191.46 182.937 189.259C183.912 187.057 185.092 185.028 186.475 183.173C187.859 181.317 189.416 179.713 191.146 178.36C192.876 177.008 194.747 175.954 196.76 175.2C198.805 174.413 200.975 174.02 203.271 174.02C204.812 174.02 206.196 174.177 207.423 174.492C208.681 174.775 209.829 175.2 210.867 175.766C211.905 176.3 212.848 176.961 213.698 177.747C214.547 178.533 215.333 179.414 216.057 180.389L214.736 181.946C214.452 182.292 214.122 182.465 213.745 182.465C213.43 182.465 213.037 182.213 212.565 181.71C212.125 181.207 211.512 180.672 210.725 180.106C209.97 179.508 208.98 178.958 207.753 178.455C206.526 177.952 204.985 177.7 203.13 177.7C200.488 177.7 198.019 178.408 195.723 179.823C193.458 181.238 191.476 183.141 189.778 185.532C188.111 187.922 186.79 190.69 185.815 193.835C184.871 196.949 184.4 200.204 184.4 203.601C184.4 205.771 184.635 207.784 185.107 209.64C185.611 211.496 186.365 213.1 187.372 214.452C188.41 215.805 189.699 216.858 191.241 217.613C192.782 218.368 194.606 218.746 196.713 218.746C198.38 218.746 199.874 218.573 201.195 218.227C202.516 217.849 203.68 217.393 204.686 216.858C205.724 216.324 206.621 215.742 207.376 215.113C208.162 214.452 208.854 213.855 209.452 213.32C210.049 212.785 210.552 212.345 210.961 211.999C211.402 211.622 211.795 211.433 212.141 211.433C212.487 211.433 212.817 211.59 213.131 211.905L214.122 213.131ZM223.094 221.718L228.755 174.633H230.784C231.885 174.633 232.435 175.2 232.435 176.332L231.114 189.447C233.567 184.572 236.398 180.798 239.606 178.125C242.814 175.42 246.195 174.067 249.75 174.067C251.574 174.067 253.084 174.397 254.279 175.058C255.474 175.718 256.402 176.693 257.062 177.983C257.723 179.241 258.147 180.798 258.336 182.654C258.525 184.509 258.525 186.632 258.336 189.023C259.563 186.507 260.899 184.321 262.346 182.465C263.825 180.578 265.366 179.021 266.97 177.794C268.605 176.536 270.272 175.608 271.971 175.011C273.669 174.382 275.352 174.067 277.019 174.067C279.063 174.067 280.746 174.46 282.067 175.247C283.42 176.033 284.457 177.181 285.181 178.691C285.904 180.2 286.329 182.056 286.455 184.258C286.612 186.428 286.518 188.913 286.172 191.712L282.633 221.718H278.246L281.784 191.712C282.067 189.479 282.177 187.497 282.114 185.768C282.083 184.038 281.831 182.591 281.359 181.427C280.919 180.232 280.227 179.336 279.283 178.738C278.371 178.14 277.145 177.842 275.604 177.842C274.062 177.842 272.49 178.203 270.886 178.927C269.313 179.619 267.756 180.672 266.215 182.088C264.705 183.503 263.258 185.28 261.875 187.419C260.522 189.558 259.295 192.074 258.195 194.967L255.034 221.718H250.646L254.184 191.712C254.467 189.479 254.609 187.497 254.609 185.768C254.609 184.038 254.405 182.591 253.996 181.427C253.587 180.232 252.926 179.336 252.014 178.738C251.133 178.14 249.923 177.842 248.381 177.842C244.796 177.842 241.478 179.477 238.427 182.748C235.407 186.019 232.749 190.643 230.453 196.619L227.481 221.718H223.094ZM313.703 218.793C316.439 218.793 318.924 218.085 321.157 216.67C323.421 215.223 325.356 213.32 326.96 210.961C328.564 208.571 329.791 205.85 330.64 202.799C331.52 199.717 331.961 196.556 331.961 193.316C331.961 188.284 330.844 184.415 328.611 181.71C326.378 179.005 323.28 177.653 319.317 177.653C316.581 177.653 314.08 178.36 311.815 179.776C309.582 181.191 307.664 183.078 306.06 185.437C304.487 187.765 303.26 190.454 302.38 193.505C301.499 196.556 301.059 199.732 301.059 203.035C301.059 208.036 302.16 211.92 304.361 214.688C306.594 217.425 309.708 218.793 313.703 218.793ZM313.325 222.331C310.809 222.331 308.513 221.891 306.437 221.01C304.393 220.129 302.631 218.856 301.153 217.189C299.706 215.522 298.574 213.509 297.756 211.15C296.97 208.759 296.577 206.054 296.577 203.035C296.577 199.229 297.143 195.581 298.275 192.09C299.407 188.598 300.996 185.516 303.04 182.842C305.116 180.169 307.569 178.046 310.4 176.473C313.231 174.869 316.345 174.067 319.741 174.067C322.258 174.067 324.538 174.508 326.582 175.388C328.658 176.269 330.42 177.543 331.866 179.21C333.345 180.877 334.477 182.905 335.263 185.296C336.081 187.655 336.49 190.312 336.49 193.269C336.49 197.075 335.908 200.723 334.744 204.214C333.612 207.706 332.024 210.804 329.979 213.509C327.935 216.182 325.497 218.321 322.667 219.925C319.836 221.529 316.722 222.331 313.325 222.331ZM349.388 200.251C349.199 201.667 349.105 203.066 349.105 204.45C349.074 206.526 349.31 208.461 349.813 210.253C350.316 212.015 351.055 213.54 352.03 214.83C353.037 216.119 354.279 217.126 355.757 217.849C357.236 218.573 358.965 218.934 360.947 218.934C362.866 218.903 364.69 218.541 366.42 217.849C368.15 217.157 369.659 216.229 370.949 215.066C372.27 213.87 373.308 212.502 374.063 210.961C374.849 209.388 375.242 207.737 375.242 206.007C375.242 204.623 374.991 203.334 374.487 202.139C373.984 200.943 373.166 199.968 372.034 199.213C370.902 198.427 369.392 197.924 367.505 197.704C365.649 197.452 363.353 197.578 360.617 198.081L349.388 200.251ZM359.532 195.392C363.149 194.732 366.042 193.961 368.213 193.08C370.414 192.168 372.097 191.209 373.261 190.202C374.456 189.164 375.242 188.111 375.62 187.041C376.028 185.972 376.233 184.918 376.233 183.88C376.233 183.157 376.107 182.418 375.855 181.663C375.604 180.877 375.164 180.169 374.534 179.54C373.937 178.879 373.135 178.345 372.128 177.936C371.122 177.527 369.864 177.323 368.354 177.323C365.964 177.323 363.762 177.873 361.749 178.974C359.736 180.043 357.928 181.506 356.323 183.361C354.751 185.186 353.414 187.309 352.313 189.731C351.212 192.121 350.395 194.653 349.86 197.326L359.532 195.392ZM367.127 195.722C371.059 195.659 374.078 196.524 376.186 198.317C378.325 200.11 379.394 202.658 379.394 205.96C379.394 208.13 378.891 210.206 377.884 212.188C376.909 214.169 375.572 215.915 373.874 217.425C372.176 218.934 370.178 220.145 367.882 221.057C365.586 221.938 363.117 222.378 360.475 222.378C357.896 222.378 355.616 221.938 353.634 221.057C351.684 220.177 350.033 218.966 348.681 217.425C347.359 215.852 346.353 214.012 345.661 211.905C345.001 209.766 344.67 207.454 344.67 204.969C344.67 202.453 344.922 199.953 345.425 197.468C345.96 194.952 346.715 192.561 347.69 190.297C348.696 188.001 349.907 185.878 351.323 183.928C352.769 181.946 354.389 180.232 356.182 178.785C357.975 177.338 359.925 176.206 362.032 175.388C364.171 174.57 366.451 174.162 368.873 174.162C370.855 174.162 372.553 174.429 373.968 174.964C375.384 175.498 376.532 176.206 377.412 177.087C378.325 177.936 378.985 178.895 379.394 179.965C379.803 181.034 380.007 182.103 380.007 183.173C380.007 184.399 379.787 185.61 379.347 186.805C378.938 188.001 378.23 189.149 377.224 190.25C376.217 191.319 374.88 192.325 373.213 193.269C371.578 194.213 369.549 195.03 367.127 195.722ZM429.052 174.775L423.39 221.718H421.314C420.717 221.718 420.277 221.561 419.993 221.246C419.742 220.931 419.616 220.507 419.616 219.972L421.031 206.621C419.742 209.105 418.326 211.323 416.785 213.273C415.244 215.223 413.609 216.874 411.879 218.227C410.18 219.548 408.403 220.57 406.547 221.293C404.723 221.985 402.899 222.331 401.075 222.331C397.049 222.331 394.171 220.79 392.441 217.708C390.711 214.594 390.192 210.238 390.884 204.639L394.423 174.775H398.857L395.319 204.639C394.784 209.137 395.083 212.597 396.215 215.018C397.348 217.409 399.471 218.604 402.584 218.604C404.314 218.604 406.06 218.164 407.821 217.283C409.614 216.402 411.344 215.144 413.011 213.509C414.678 211.842 416.251 209.86 417.729 207.564C419.207 205.237 420.512 202.626 421.645 199.732L424.617 174.775H429.052ZM467.656 183.267C466.775 184.305 465.863 185.154 464.919 185.815C464.007 186.444 462.954 186.931 461.758 187.277C463.079 187.56 464.133 188.064 464.919 188.787C465.737 189.51 466.508 190.517 467.231 191.806L485.442 221.718H481.338C480.74 221.718 480.268 221.576 479.922 221.293C479.576 221.01 479.23 220.57 478.884 219.972L462.277 192.797C461.931 192.231 461.585 191.744 461.239 191.335C460.925 190.894 460.548 190.548 460.107 190.297C459.667 190.014 459.148 189.809 458.55 189.683C457.984 189.558 457.292 189.495 456.474 189.495H448.548L444.585 221.718H439.868L448.077 154.96H452.747L448.973 185.862H456.05C456.773 185.862 457.434 185.815 458.031 185.72C458.629 185.626 459.195 185.453 459.73 185.201C460.296 184.95 460.846 184.604 461.381 184.163C461.947 183.723 462.529 183.157 463.127 182.465L485.395 156.47C485.741 156.029 486.134 155.667 486.574 155.384C487.046 155.101 487.55 154.96 488.084 154.96H491.953L467.656 183.267Z" fill="white"/>
<path d="M282.785 61.9493C282.785 61.9493 303.069 33.9106 289.686 14.5409C284.556 7.11809 273.594 4.77717 265.199 9.31219C259.184 12.5619 256.12 18.4601 256.753 24.2731C251.192 21.1222 243.859 20.8411 237.844 24.0902C229.449 28.6252 226.801 38.3187 231.93 45.7418C245.313 65.1115 282.785 61.9493 282.785 61.9493Z" fill="#1EC515"/>
<path d="M291.174 74.0903C291.174 74.0903 270.89 102.128 284.273 121.499C289.402 128.922 300.365 131.263 308.76 126.727C314.775 123.478 317.839 117.58 317.205 111.766C322.766 114.918 330.1 115.199 336.114 111.949C344.509 107.414 347.157 97.7206 342.028 90.2985C328.645 70.9278 291.174 74.0903 291.174 74.0903Z" fill="#1EC515"/>
<path d="M353.374 48.7612C349.699 43.442 343.028 40.7328 336.454 41.293C340.018 36.3758 340.336 29.8916 336.661 24.5727C331.532 17.1499 320.57 14.8087 312.175 19.3434C290.27 31.1776 293.845 64.3111 293.845 64.3111C293.845 64.3111 325.554 82.2467 347.461 70.4128C355.854 65.8778 358.502 56.184 353.374 48.7612Z" fill="#1EC515"/>
<path d="M237.505 94.7468C233.941 99.6637 233.623 106.148 237.299 111.467C242.427 118.89 253.39 121.23 261.784 116.696C283.691 104.862 280.115 71.7281 280.115 71.7281C280.115 71.7281 248.405 53.7925 226.499 65.627C218.104 70.1617 215.456 79.8555 220.586 87.2783C224.261 92.5975 230.931 95.3066 237.505 94.7468Z" fill="#1EC515"/>
<path d="M274.643 112.017C274.398 112.5 274.146 113.038 273.84 113.611C273.522 114.18 273.203 114.8 272.802 115.439C272.04 116.729 271.088 118.137 269.954 119.602C268.823 121.069 267.504 122.591 266.004 124.109C264.504 125.628 262.824 127.143 260.994 128.614C259.165 130.085 257.187 131.511 255.105 132.868C253.019 134.222 250.826 135.504 248.582 136.706C244.094 139.112 239.38 141.173 234.862 142.878C230.345 144.587 226.021 145.94 222.291 146.977C218.559 148.013 215.419 148.73 213.251 149.179C212.167 149.403 211.325 149.561 210.772 149.657C210.506 149.701 210.302 149.734 210.165 149.757C210.094 149.769 210.072 149.769 210.052 149.77C210.033 149.771 209.996 149.778 210 149.777L215.323 165.413C215.323 165.413 215.43 165.376 215.638 165.304C215.816 165.237 216.081 165.138 216.427 165.01C217.091 164.754 218.032 164.381 219.202 163.894C221.541 162.917 224.795 161.474 228.574 159.584C232.352 157.692 236.657 155.353 241.071 152.596C245.485 149.844 250.01 146.675 254.2 143.185C256.296 141.441 258.311 139.623 260.191 137.754C262.067 135.882 263.809 133.962 265.374 132.033C266.941 130.104 268.328 128.167 269.517 126.274C270.707 124.383 271.696 122.538 272.499 120.804C273.303 119.071 273.927 117.452 274.384 115.999C274.631 115.278 274.805 114.588 274.985 113.961C275.153 113.329 275.276 112.743 275.402 112.219C275.612 111.161 275.765 110.334 275.835 109.765C275.915 109.2 275.958 108.898 275.958 108.898C275.958 108.898 275.844 109.185 275.633 109.724C275.434 110.262 275.089 111.04 274.643 112.017Z" fill="#1EC515"/>
</svg>
