<svg width="99" height="59" viewBox="0 0 99 59" fill="none" xmlns="http://www.w3.org/2000/svg">
<path d="M5.1242 18.3193C5.1305 18.2677 5.1159 18.2128 5.105 18.1587C5.08 18.0457 5.0425 17.9309 5.0131 17.8216C4.9524 17.8049 4.9019 17.7849 4.8449 17.7656C4.7752 17.8866 4.7119 18.0061 4.6393 18.1191C4.1112 18.9601 3.5724 19.7959 3.0497 20.6406C2.6486 21.3054 2.305 22.0097 1.856 22.6461C1.1828 23.5975 1.1472 23.5855 2.0993 24.2917C2.2922 24.4414 2.3438 24.5606 2.262 24.7876C1.6881 26.365 1.1225 27.9444 0.555801 29.5229C0.567801 29.7121 0.573202 29.9032 0.582402 30.0877C0.749502 30.2769 0.884601 30.5458 1.0894 30.6468C1.7927 30.9646 2.5025 31.2418 3.2087 31.5321C3.4078 31.613 3.6091 31.6974 3.8092 31.7783C4.5878 30.4412 4.8551 29.0658 4.2666 27.7279C4.0497 27.2346 3.8368 26.7369 3.5999 26.2585C3.4438 25.9573 3.4409 25.703 3.6135 25.3935C4.3004 24.1668 4.7504 22.871 4.5336 21.4267C4.5034 21.1981 4.6016 20.9566 4.6495 20.7179C4.8093 19.9216 4.9819 19.1217 5.1242 18.3193V18.3193Z" fill="white"/>
<path d="M48.1843 57.6979C48.0255 57.4444 47.9602 57.1708 47.8519 56.91C47.5249 56.1422 47.344 55.348 47.5231 54.4656C47.6314 53.9192 47.635 53.3461 47.6837 52.7815C47.7095 52.504 47.615 52.3627 47.3008 52.3728C46.8831 52.3793 46.4663 52.3114 46.0501 52.3242C44.7067 52.3609 43.3652 52.4114 42.0247 52.4767C41.6701 52.4923 41.369 52.6474 41.199 52.9824C40.839 53.6519 40.4434 54.3167 40.1513 55.0182C39.784 55.8842 39.4811 56.7822 39.1596 57.6638C39.1247 57.7641 39.0862 57.864 39.0503 57.9595C39.0401 57.9853 39.0604 58.0366 39.0888 58.1743C39.2983 58.0769 39.5323 58.0376 39.6398 57.9007C39.6921 57.8338 39.7445 57.7648 39.7978 57.6969C40.0688 57.3598 40.3478 57.0191 40.4673 56.6326C40.7903 55.594 41.4507 55.3829 42.4552 55.348C43.8988 55.3077 45.0972 55.6052 45.9887 56.8283C46.0998 56.9824 46.2578 57.0753 46.3919 57.1974C46.8005 57.5665 47.2761 57.8549 47.8115 58.0439C47.9713 58.1009 48.1218 58.1808 48.2806 58.2469C48.3376 58.2451 48.3891 58.2433 48.4422 58.2422C48.3587 58.0587 48.2918 57.8658 48.1843 57.6979V57.6979Z" fill="white"/>
<path d="M65.6917 38.0816C65.5649 37.6766 65.4439 37.269 65.2979 36.8015C65.1682 37.1927 65.0636 37.5353 64.935 37.8989C64.7754 38.3588 64.5927 38.8346 64.4769 39.2883C64.2564 40.101 64.0885 40.9347 63.9774 41.7666C63.9022 42.3653 63.9269 42.9759 64.0307 43.6069C64.0664 43.8464 64.0812 44.0778 64.1565 44.3248C64.7093 42.5553 65.2234 40.8878 65.744 39.2147C65.7313 38.8401 65.7091 38.4637 65.6917 38.0816V38.0816Z" fill="white"/>
<path d="M37.6127 58.0332C37.5218 57.8843 37.4849 57.7227 37.4078 57.5712C37.058 56.8788 36.8367 56.1635 37.0332 55.3563C37.1691 54.7649 37.3326 54.1866 37.4593 53.5952C37.6832 52.5576 37.6577 52.4759 36.7412 51.9296C35.0774 50.9368 33.2407 50.6778 31.3455 50.7744C30.6807 50.8092 30.1838 51.1856 29.8496 51.7531C29.6586 52.0855 29.5144 52.4566 29.3556 52.8065C28.9167 53.7678 28.5898 54.7806 27.9781 55.6494C27.9112 55.7439 27.8589 55.8394 27.7863 55.9339C27.7183 56.0157 27.7311 56.1599 27.6871 56.3684C27.8836 56.2913 27.9588 56.2674 28.0286 56.2361C28.2538 56.1185 28.4721 55.9909 28.6825 55.8587C29.2372 55.4987 29.7221 55.069 29.9993 54.4096C30.0875 54.1957 30.2289 54.0057 30.5227 54.0801C31.8614 54.4216 33.2048 54.7496 34.5383 55.1057C34.9957 55.2241 35.3418 55.506 35.5667 55.9477C35.7778 56.3509 36.0223 56.744 36.2948 57.1094C36.3932 57.2482 36.5163 57.3637 36.6246 57.496C36.8302 57.7466 37.0358 57.9983 37.2574 58.2381C37.3693 58.3518 37.564 58.3895 37.722 58.4619C37.7493 58.4208 37.7751 58.3903 37.8045 58.3547C37.7402 58.2443 37.6814 58.1389 37.6127 58.0332V58.0332Z" fill="white"/>
<path d="M26.8633 49.2074C25.7237 48.516 24.5714 47.8494 23.4198 47.1945C23.2243 47.0836 22.9846 47.0423 22.7652 46.9871C22.1785 46.8421 21.6595 46.998 21.2646 47.4397C21.0176 47.707 20.8036 48.0074 20.6266 48.3232C20.137 49.1881 19.5008 49.9292 18.7561 50.5758C18.5742 50.7317 18.3769 50.886 18.1895 51.0357C18.0471 51.1541 17.9112 51.2645 17.768 51.3829C18.0507 51.6747 18.3144 51.6445 18.6101 51.4894C18.657 51.4654 18.7093 51.4444 18.7587 51.416C19.3262 51.1156 19.8855 50.8007 20.4769 50.5453C20.724 50.436 21.06 50.4261 21.3299 50.4893C22.7129 50.809 23.9074 51.5407 25.0948 52.2791C25.1922 52.3359 25.2802 52.4848 25.2903 52.5949C25.3335 53.4002 25.586 54.1486 25.8708 54.8795C26.0012 55.2064 26.1204 55.537 26.2544 55.8649C26.2969 55.9587 26.3601 56.044 26.4124 56.1312C26.3804 55.7712 26.4106 55.4352 26.4629 55.0981C26.5733 54.3875 26.8138 53.7068 26.9874 53.0257C27.1535 52.3635 27.3188 51.695 27.5273 51.0448C27.7834 50.2452 27.5494 49.628 26.8633 49.2074V49.2074Z" fill="white"/>
<path d="M15.7625 42.636C14.9876 41.9548 14.1812 41.2963 13.3696 40.6525C13.1676 40.4919 12.9057 40.3699 12.6514 40.3045C12.1988 40.1825 11.9122 40.4066 11.7662 40.8392C11.3494 42.0954 10.7646 43.2019 9.6854 43.8474C9.3493 44.052 8.9729 44.2129 8.5341 44.3128C8.4734 44.3284 8.4099 44.3651 8.3485 44.3854C8.343 44.4203 8.3394 44.4541 8.3347 44.4846C8.5698 44.5166 8.8022 44.5562 9.0307 44.5773C9.4633 44.6121 9.8848 44.5728 10.2924 44.4948C10.681 44.4193 11.061 44.3066 11.4403 44.1678C11.9216 43.9887 12.3844 43.9778 12.837 44.2394C13.7699 44.7774 14.5568 45.4865 15.231 46.3166C15.3668 46.4855 15.4283 46.7554 15.4374 46.9813C15.453 47.705 15.4457 48.4257 15.4504 49.1465C15.4493 49.3404 15.4493 49.5268 15.4558 49.7186C15.4613 49.9307 15.5798 50.1465 15.6597 50.4092C15.7661 50.2998 15.8085 50.2762 15.8205 50.2439C15.8838 50.0208 15.9499 49.804 16.0142 49.582C16.332 48.5028 16.6597 47.4257 16.9114 46.3275C17.2402 44.9024 16.8929 43.6277 15.7625 42.636V42.636Z" fill="white"/>
<path d="M8.79311 36.9095C8.10621 35.8858 7.42501 34.8537 6.71231 33.8443C6.57101 33.6397 6.31381 33.4853 6.07801 33.3789C5.58471 33.1511 5.30461 33.2761 5.06311 33.7607C4.82071 34.2365 4.57551 34.7131 4.32851 35.1923C4.16971 35.5018 4.0128 35.816 3.8519 36.1281C3.6288 36.5633 3.40291 37.005 3.21761 37.3632C4.02011 37.5431 4.80151 37.7214 5.58831 37.8994C5.9392 37.9811 6.30281 38.0483 6.64801 38.1417C7.54711 38.3888 8.29281 38.8838 8.52861 39.8948C8.58641 39.8959 8.64161 39.8938 8.69761 39.8966C8.77751 39.0382 8.86471 38.1849 8.93081 37.3218C8.94381 37.1906 8.87301 37.0272 8.79311 36.9095V36.9095Z" fill="white"/>
<path d="M54.3928 54.5663C54.4077 54.5536 54.4131 54.546 54.423 54.5343C54.4077 54.5424 54.3975 54.5481 54.3827 54.5572C54.3873 54.5617 54.3873 54.5645 54.3928 54.5663V54.5663Z" fill="white"/>
<path d="M56.8195 50.791C56.9885 50.3852 56.7883 50.1502 56.3604 50.1916C55.3556 50.2795 54.353 50.399 53.3548 50.5011C52.241 50.6213 51.5577 51.3173 51.2557 52.3072C50.9582 53.2823 50.8489 54.3172 50.6552 55.3282C50.6956 55.3373 50.7331 55.3493 50.7737 55.366C51.0389 55.1023 51.2924 54.8305 51.5697 54.5807C52.6616 53.5983 53.2538 53.5863 54.3832 54.5577C54.397 54.5486 54.4071 54.5421 54.4238 54.5341C55.5384 53.4817 56.2362 52.1714 56.8195 50.791V50.791Z" fill="white"/>
<path d="M63.3199 45.469C62.1069 45.7793 60.9663 46.0529 59.8554 46.3762C59.2897 46.5451 58.9534 46.9694 58.8608 47.5855C58.6973 48.6425 58.5 49.6986 58.3155 50.7528C58.2759 50.9784 58.2225 51.2054 58.1739 51.4303C58.2145 51.4459 58.2574 51.4569 58.2933 51.48C58.4888 51.1346 58.7241 50.8113 58.8662 50.4571C58.9683 50.1832 59.0922 50.177 59.3374 50.2054C59.6011 50.2301 59.8663 50.2246 60.1344 50.2356C60.4007 50.2504 60.668 50.29 60.9306 50.2668C61.4044 50.2319 61.7782 49.9711 61.9093 49.4534C61.9958 49.1272 62.1389 48.8224 62.2693 48.5121C62.6827 47.5084 63.1088 46.5066 63.5734 45.4029C63.4823 45.4284 63.4089 45.4469 63.3199 45.469V45.469Z" fill="white"/>
<path d="M48.6629 11.0089L48.461 10.8574L48.3298 11.0732C47.1636 12.9814 45.7411 13.8703 43.8522 13.8703C40.3426 13.8703 39.0976 10.638 39.0976 7.86951C39.0976 2.56541 41.6834 1.45271 43.8522 1.45271C46.079 1.45271 47.3987 2.68211 47.8844 5.21191L47.9201 5.39851H48.1103H48.5253H48.7548V5.16891C48.7548 3.84481 48.7548 2.59411 48.1827 1.90721C47.3021 0.831914 45.4041 0.162415 43.2288 0.162415C39.5521 0.162415 36.5613 3.61961 36.5613 7.86951C36.5613 12.1622 39.3033 15.1603 43.2288 15.1603C46.0433 15.1603 47.8677 14.0658 49.1442 11.6096L49.2343 11.4368L49.0781 11.3202L48.6629 11.0089Z" fill="white"/>
<path d="M53.1106 9.50881L55.3528 4.30581L57.5062 9.50881H53.1106ZM61.0735 11.8319L56.5043 0.720012L56.4465 0.576813H56.2922H55.6696H55.5173L55.4585 0.717312L49.6422 14.425L49.5063 14.7446H49.8533H50.789H50.9416L51.0004 14.6041L52.6028 10.7988H58.1085L58.5695 12.0027C59.4712 14.3552 61.104 14.8493 62.3151 14.8493C62.6392 14.8493 62.9745 14.8071 63.2132 14.7345L63.3766 14.6858V14.515V14.1001V13.8898L63.1663 13.8713C62.147 13.7787 61.698 13.3416 61.0735 11.8319V11.8319Z" fill="white"/>
<path d="M66.7813 1.92333C67.1532 1.84343 67.6684 1.76433 68.1101 1.76433C69.0466 1.76433 71.099 2.46503 71.099 4.54583C71.099 6.55033 69.0466 7.22453 68.1101 7.22453C67.6684 7.22453 67.1522 7.14533 66.7813 7.06463V1.92333ZM72.4607 11.5935L70.4415 8.22793C72.5333 7.68913 73.6361 6.42093 73.6361 4.54583C73.6361 2.02323 71.6592 0.577026 68.2137 0.577026H62.8133H62.584V0.806627V1.22263V1.45223H62.8133H63.2285C64.1559 1.45223 64.4527 1.90223 64.4527 3.29973V14.5153V14.7449H64.6823H66.5517H66.7813V14.5153V8.41063H67.874L69.885 11.8285C71.2662 14.1647 72.2597 14.9523 73.8215 14.9523C74.3376 14.9523 74.9051 14.855 75.1714 14.7202L75.2973 14.6559V14.5153V14.1004V13.8919L75.0907 13.8716C74.1989 13.7836 73.5471 13.407 72.4607 11.5935V11.5935Z" fill="white"/>
<path d="M86.5949 1.86761V1.63801V0.807106V0.577606H86.3653H76.7068C75.402 0.577606 74.7125 1.23221 74.7125 2.46911V4.02651V4.25611H74.942H75.3572H75.5868V4.02651C75.5868 2.55371 76.3388 1.86761 77.9539 1.86761H79.593V14.5148V14.7444H79.8226H81.6912H81.9208V14.5148V1.86761H86.3653H86.5949V1.86761Z" fill="white"/>
<path d="M88.4573 9.50881L90.7005 4.30581L92.854 9.50881H88.4573ZM98.5141 13.8713C97.4958 13.7787 97.0457 13.3416 96.4213 11.8319L91.8521 0.720012L91.7943 0.576813H91.6399H91.0173H90.865L90.8062 0.717312L84.9899 14.425L84.8541 14.7446H85.201H86.136H86.2883L86.3471 14.6041L87.9495 10.7988H93.4555L93.9183 12.0027C94.8189 14.3552 96.4518 14.8493 97.6637 14.8493C97.988 14.8493 98.3222 14.8071 98.5609 14.7345L98.7244 14.6858V14.515V14.1001V13.8898L98.5141 13.8713Z" fill="white"/>
<path d="M26.2984 25.8402H28.1929C30.0274 25.8402 32.2128 26.3434 32.2128 28.742C32.2128 30.6125 30.7859 31.6427 28.1929 31.6427C27.5931 31.6427 26.8971 31.5482 26.2984 31.3874V25.8402V25.8402ZM27.7464 18.9083C29.2726 18.9083 31.5426 19.6512 31.5426 21.6971C31.5426 23.6134 29.8062 24.4856 28.1929 24.4856H26.2984V19.0837C26.7006 18.9955 27.2644 18.9083 27.7464 18.9083ZM31.8044 24.976C33.3084 24.2774 34.1257 23.1727 34.1257 21.809C34.1257 19.9182 33.0385 17.6649 27.8586 17.6649H22.0431H21.8135V17.8945V18.3427V18.5723H22.0431H22.4914C23.5023 18.5723 23.8264 19.0598 23.8264 20.5786V32.6555V32.8851H24.056H28.5289C32.7032 32.8851 34.909 31.4131 34.909 28.629C34.909 26.6391 33.9438 25.4904 31.8044 24.976V24.976Z" fill="white"/>
<path d="M41.4775 31.9785C40.4657 31.9785 40.1414 31.4907 40.1414 29.9711V17.8942V17.6646H39.9118H37.899H37.6697V17.8942V29.9711C37.6697 32.2593 38.1507 32.8848 39.9118 32.8848H41.9247H42.1543V32.6552V32.2081V31.9785H41.9247H41.4775Z" fill="white"/>
<path d="M46.939 19.0832C47.3414 18.995 47.9052 18.9088 48.3873 18.9088C49.4019 18.9088 51.6241 19.6673 51.6241 21.9197C51.6241 24.0905 49.4019 24.8214 48.3873 24.8214C47.8987 24.8214 47.3375 24.7342 46.939 24.646V19.0832V19.0832ZM53.0565 29.5166L50.8702 25.8738C53.1291 25.2991 54.3202 23.9362 54.3202 21.9197C54.3202 19.2165 52.1988 17.6646 48.4992 17.6646H42.684H42.4544V17.8942V18.3422V18.5717H42.684H43.1319C44.1421 18.5717 44.4673 19.0603 44.4673 20.5781V32.6552V32.8848H44.6968H46.7094H46.939V32.6552V26.0648H48.1439L50.3145 29.7517C51.7959 32.2622 52.862 33.1087 54.5368 33.1087C55.0886 33.1087 55.6966 33.004 55.983 32.8609L56.1089 32.7974V32.6552V32.2081V31.9996L55.9033 31.9793C54.9371 31.883 54.232 31.4761 53.0565 29.5166V29.5166Z" fill="white"/>
<path d="M72.9536 27.2822L75.3963 21.6164L77.7405 27.2822H72.9536ZM60.2237 19.083C60.6251 18.9958 61.1878 18.9086 61.6709 18.9086C62.6837 18.9086 64.9077 19.6671 64.9077 21.9194C64.9077 24.0903 62.6837 24.8212 61.6709 24.8212C61.1816 24.8212 60.6204 24.735 60.2237 24.6468V19.083V19.083ZM83.8074 31.979C82.7009 31.879 82.2134 31.4043 81.5392 29.7725L76.6194 17.8075L76.5613 17.6644H76.408H75.7359H75.5844L75.5256 17.8047L69.3926 32.2601V32.2078V32.0001L69.1851 31.979C68.221 31.8835 67.5156 31.4759 66.3403 29.5171L64.1528 25.8735C66.4119 25.2988 67.6028 23.9359 67.6028 21.9194C67.6028 19.2162 65.4808 17.6644 61.7821 17.6644H55.9676H55.738V17.8939V18.3429V18.5725H55.9676H56.4148C57.4258 18.5725 57.7498 19.0601 57.7498 20.5778V32.6558V32.8853H57.9794H59.9941H60.2237V32.6558V26.0646H61.4265L63.5974 29.7514C65.0805 32.2619 66.1456 33.1095 67.8204 33.1095C68.3394 33.1095 68.8967 33.0147 69.2007 32.8853H69.4743H70.4806H70.6331L70.6919 32.744L72.4219 28.6366H78.3732L78.8754 29.9425C79.8423 32.4676 81.5936 32.9983 82.8927 32.9983C83.2389 32.9983 83.5989 32.9525 83.8532 32.8752L84.0167 32.8257V32.6558V32.2078V31.9983L83.8074 31.979V31.979Z" fill="white"/>
<path d="M62.8868 34.7618C62.5111 36.6646 61.5855 38.3927 60.0758 39.9261C58.1236 41.9095 55.6987 43.1061 53.0723 43.9252C50.6446 44.6874 48.1468 45.0583 45.459 45.1887C39.9072 45.3889 34.3858 44.4393 29.0214 42.5431C25.2729 41.2153 21.7292 39.4872 18.4649 37.2109C15.2252 34.9427 12.3438 32.3192 10.2078 28.9565C8.72411 26.6279 7.70381 24.1257 7.69361 21.3166C7.68811 18.3791 8.81031 15.9027 10.9306 13.8786C13.1207 11.7851 15.7872 10.5859 18.6697 9.81001C22.6072 8.75211 26.6136 8.58681 30.6466 8.99261C31.7227 9.10091 33.766 9.31671 34.8192 9.49141C34.8192 9.49141 34.6979 8.36821 34.6841 7.91921C32.71 7.59041 28.5437 7.31501 28.2113 7.31501C27.88 7.31501 27.248 7.26901 26.7651 7.24161C25.6107 7.29761 23.5164 7.39391 22.9479 7.49671C22.3794 7.59881 19.7018 8.00381 18.1179 8.41321C15.1685 9.17351 12.4383 10.4297 10.1693 12.5188C10.1391 12.5472 10.1143 12.5774 10.0821 12.6087C6.89761 15.5968 5.63311 19.268 6.41011 23.6105C6.93431 26.537 8.29621 29.085 10.0776 31.4194C12.7863 34.9711 16.1875 37.738 20.0131 39.994C26.5483 43.849 33.6033 46.0729 41.1782 46.6247C44.8788 46.891 48.55 46.6745 52.1577 45.759C55.0797 45.0133 57.8235 43.8609 60.1568 41.9033C62.4846 39.9471 63.9318 37.5735 64.4045 34.7618H62.8868V34.7618Z" fill="white"/>
<path d="M59.9647 34.7618C59.2312 36.2796 58.0611 37.5183 56.8086 38.6462C55.4184 39.8904 53.638 40.4386 51.8601 40.9178C48.9704 41.701 46.0137 41.9501 43.0273 41.928C39.246 41.9004 35.5446 41.4147 31.9559 40.1923C27.9175 38.8133 24.1526 36.8931 20.631 34.5075C19.2783 33.5837 17.9037 32.6461 16.731 31.5113C14.2666 29.1413 12.7027 26.1916 11.7422 22.92C11.1886 21.0503 11.0647 19.1946 11.8763 17.358C12.4052 16.1752 13.1361 15.1359 13.9974 14.1772C14.1481 14.0072 14.384 13.8182 14.1591 13.6087C14.0708 13.5251 13.7423 13.5959 13.5999 13.6969C12.9599 14.1431 12.2857 14.5609 11.7375 15.1064C9.77341 17.0753 9.41441 19.5554 9.81401 22.1458C10.1417 24.2423 10.9884 26.1971 12.0103 28.053C13.4466 30.6765 15.3059 32.9353 17.767 34.6673C19.9688 36.2156 22.2316 37.669 24.6135 38.9317C30.8981 42.2651 37.5445 44.0491 43.5518 43.7175C47.4432 43.6157 50.1484 43.2485 52.7894 42.4965C55.4819 41.7242 57.9224 40.5367 59.6424 38.2172C60.2541 37.389 60.9171 36.5625 61.3411 35.6361C61.4734 35.3485 61.5725 35.0565 61.6561 34.7618H59.9647V34.7618Z" fill="white"/>
</svg>
