<svg width="486" height="486" viewBox="0 0 486 486" fill="none" xmlns="http://www.w3.org/2000/svg">
<g clip-path="url(#clip0)">
<path d="M121.305 30.327H363.909V90.978H394.236V30.327C394.236 13.595 380.674 0 363.909 0H121.305C104.574 0 90.978 13.595 90.978 30.327V90.978H121.305V30.327Z" fill="black"/>
<path d="M454.89 121.304H30.328C13.597 121.304 0.00100708 134.895 0.00100708 151.628V303.257C0.00100708 320.021 13.596 333.584 30.328 333.584H90.979V454.886C90.979 471.65 104.574 485.212 121.306 485.212H363.91C380.675 485.212 394.237 471.65 394.237 454.886V333.584H454.89C471.649 333.584 485.212 320.021 485.212 303.257V151.628C485.212 134.895 471.648 121.304 454.89 121.304ZM363.909 454.886H121.305V242.606H363.909V454.886ZM424.562 212.282C407.798 212.282 394.236 198.718 394.236 181.955C394.236 165.224 407.798 151.628 424.562 151.628C441.327 151.628 454.889 165.223 454.889 181.955C454.89 198.717 441.327 212.282 424.562 212.282Z" fill="black"/>
<path d="M272.933 272.93H151.629V303.257H272.933V272.93Z" fill="#1EC515"/>
<path d="M333.587 333.584H151.629V363.905H333.587V333.584Z" fill="#1EC515"/>
<path d="M333.587 394.237H151.629V424.559H333.587V394.237Z" fill="#1EC515"/>
</g>
<defs>
<clipPath id="clip0">
<rect width="485.213" height="485.212" fill="white"/>
</clipPath>
</defs>
</svg>
