<svg width="321" height="90" viewBox="0 0 321 90" fill="none" xmlns="http://www.w3.org/2000/svg">
<path d="M11.5182 18.8099H18.1723L17.6488 21.7654H11.0115L9.66039 29.5342H6.58663L7.93773 21.7654H1.28355L1.8071 18.8099H8.44439L9.69416 11.6321H12.7679L11.5182 18.8099ZM26.2114 18.185L28.2381 18.2019C29.7243 18.2019 30.974 17.8134 31.9874 17.0365C33.012 16.2484 33.5974 15.1844 33.7438 13.8446C33.8902 12.5385 33.6481 11.5139 33.0176 10.7708C32.3871 10.0164 31.4694 9.62799 30.2647 9.60547C28.9812 9.58295 27.889 9.96013 26.9883 10.737C26.0988 11.5026 25.5527 12.5385 25.3501 13.8446L22.327 13.8614C22.5184 11.8348 23.3797 10.1909 24.911 8.92992C26.4535 7.65763 28.2887 7.03274 30.4167 7.05526C32.4771 7.1003 34.0928 7.7477 35.2638 8.99747C36.446 10.236 36.9583 11.8742 36.8007 13.9121C36.6993 15.0718 36.2546 16.1302 35.4665 17.0872C34.6783 18.0442 33.5862 18.838 32.19 19.4685C33.3047 19.9189 34.1379 20.6338 34.6896 21.6134C35.2413 22.5817 35.4721 23.7189 35.382 25.0249C35.2019 27.243 34.318 29.0276 32.7305 30.3787C31.1542 31.7298 29.2345 32.3828 26.9714 32.3378C24.8659 32.2927 23.1883 31.6397 21.9385 30.3787C20.6888 29.1176 20.1089 27.4907 20.199 25.4978L23.2559 25.5147C23.1883 26.7757 23.4923 27.7947 24.1679 28.5716C24.8434 29.3372 25.823 29.7425 27.1065 29.7876C28.5477 29.8326 29.7468 29.4216 30.7038 28.5547C31.6608 27.6877 32.2069 26.528 32.342 25.0756C32.4659 23.7358 32.1619 22.6943 31.43 21.9512C30.6982 21.1968 29.606 20.7971 28.1536 20.7521L25.8061 20.7352L26.2114 18.185ZM57.557 9.33525L44.198 32H40.854L54.1455 9.97702H41.31L41.7153 7.40992H57.861L57.557 9.33525ZM60.9179 19.6205L64.0423 7.40992H76.3035L75.8475 10.2979H66.2209L64.3294 17.0196C65.5679 16.2878 66.9078 15.9331 68.3489 15.9557C70.3868 15.9782 71.9519 16.7494 73.044 18.2694C74.1362 19.7781 74.5809 21.7035 74.3782 24.0454C74.1643 26.5674 73.2692 28.5941 71.6929 30.1253C70.1166 31.6566 68.1519 32.3997 65.7987 32.3547C63.8396 32.3321 62.2577 31.7016 61.053 30.4631C59.8482 29.2246 59.2121 27.5751 59.1445 25.5147H61.9987C62.0776 26.8658 62.4604 27.9129 63.1472 28.656C63.834 29.3991 64.7629 29.7819 65.9338 29.8045C67.375 29.8495 68.5854 29.3372 69.5649 28.2676C70.5557 27.198 71.1412 25.7962 71.3214 24.0623C71.479 22.5423 71.2144 21.2925 70.5276 20.313C69.8408 19.3221 68.8331 18.8042 67.5045 18.7592C66.6826 18.7367 65.9507 18.8605 65.3089 19.1307C64.6784 19.401 64.0479 19.7894 63.4174 20.2961L60.9179 19.6205ZM86.9604 22.0863C87.3319 19.4854 88.0187 16.9521 89.0208 14.4863C90.0341 12.0206 91.2726 9.92072 92.7363 8.18681C94.2 6.44163 95.8326 5.12431 97.6341 4.23483L98.0901 6.32904C96.3224 7.64637 94.8024 9.36902 93.5301 11.497C92.2691 13.6137 91.2952 16.1358 90.6083 19.0632C89.9215 21.9793 89.5894 24.856 89.6119 27.6934C89.6119 30.024 89.9103 32.0732 90.507 33.8409C91.115 35.6198 91.9876 37.0216 93.1248 38.0462L92.3648 39.9377C90.4845 38.6317 89.0433 36.7007 88.0412 34.1449C87.0504 31.589 86.6001 28.6616 86.6901 25.3627C86.7127 24.2818 86.7915 23.2516 86.9266 22.2721L86.9604 22.0863ZM112.412 32H96.7559L97.1274 29.6187L106.197 20.8027L107.852 19.1645C109.755 17.2617 110.807 15.5053 111.01 13.8952C111.156 12.6567 110.914 11.649 110.284 10.8721C109.653 10.084 108.764 9.66739 107.615 9.62236C106.14 9.57732 104.908 10.0108 103.917 10.9228C102.926 11.8235 102.324 13.062 102.11 14.6383L99.0865 14.6552C99.2329 13.1465 99.6945 11.8123 100.471 10.6526C101.26 9.48162 102.29 8.58651 103.562 7.96725C104.846 7.33674 106.236 7.03837 107.734 7.07215C109.771 7.11719 111.387 7.73644 112.581 8.92992C113.785 10.1121 114.303 11.649 114.134 13.5406C113.943 15.7023 112.699 17.9767 110.402 20.3636L108.848 21.9343L100.944 29.4498H112.817L112.412 32ZM129.284 21.1912C128.45 22.0694 127.567 22.7281 126.632 23.1672C125.698 23.595 124.769 23.7977 123.845 23.7752C122.551 23.7526 121.442 23.3867 120.518 22.6774C119.606 21.9681 118.936 20.9941 118.509 19.7556C118.092 18.5171 117.951 17.166 118.086 15.7023C118.233 14.081 118.689 12.5948 119.454 11.2437C120.22 9.89258 121.216 8.8511 122.444 8.11925C123.682 7.37615 125.045 7.02711 126.531 7.07215C128.49 7.11719 130.027 7.82651 131.141 9.20014C132.256 10.5738 132.858 12.4146 132.949 14.7228C132.982 15.9275 132.842 17.425 132.526 19.2152C131.783 23.4261 130.314 26.6012 128.118 28.7405C125.934 30.8685 123.125 31.9662 119.691 32.0338H118.931L119.201 29.3991H119.826C122.247 29.3541 124.228 28.6785 125.771 27.3725C127.325 26.0551 128.496 23.9947 129.284 21.1912ZM124.487 21.1912C125.512 21.2362 126.497 20.9491 127.443 20.3298C128.389 19.6993 129.165 18.8549 129.773 17.7965L129.909 16.5636L129.959 15.1957C129.914 13.4505 129.588 12.105 128.98 11.1592C128.383 10.2135 127.522 9.71806 126.396 9.67302C125 9.61673 123.806 10.1572 122.815 11.2943C121.836 12.4203 121.267 13.8333 121.11 15.5334C121.031 16.2202 121.042 16.9183 121.143 17.6276C121.245 18.337 121.447 18.9619 121.751 19.5023C122.359 20.5944 123.271 21.1574 124.487 21.1912ZM143.639 22.1201C143.245 24.8673 142.53 27.4682 141.494 29.9227C140.458 32.3659 139.214 34.4264 137.762 36.104C136.321 37.7929 134.722 39.0764 132.965 39.9546L132.493 38.0124C136.354 35.1075 138.933 30.4406 140.228 24.0116C140.746 21.422 140.993 18.9281 140.971 16.5299C140.914 11.6997 139.743 8.23748 137.458 6.14327L138.252 4.25172C139.513 5.12994 140.577 6.30089 141.444 7.76459C142.322 9.21703 142.964 10.9115 143.369 12.8481C143.786 14.7734 143.971 16.7719 143.926 18.8436C143.892 19.9358 143.808 20.966 143.673 21.9343L143.639 22.1201ZM161.761 18.185L163.787 18.2019C165.274 18.2019 166.523 17.8134 167.537 17.0365C168.561 16.2484 169.147 15.1844 169.293 13.8446C169.44 12.5385 169.198 11.5139 168.567 10.7708C167.936 10.0164 167.019 9.62799 165.814 9.60547C164.531 9.58295 163.438 9.96013 162.538 10.737C161.648 11.5026 161.102 12.5385 160.899 13.8446L157.876 13.8614C158.068 11.8348 158.929 10.1909 160.46 8.92992C162.003 7.65763 163.838 7.03274 165.966 7.05526C168.027 7.1003 169.642 7.7477 170.813 8.99747C171.995 10.236 172.508 11.8742 172.35 13.9121C172.249 15.0718 171.804 16.1302 171.016 17.0872C170.228 18.0442 169.136 18.838 167.739 19.4685C168.854 19.9189 169.687 20.6338 170.239 21.6134C170.791 22.5817 171.021 23.7189 170.931 25.0249C170.751 27.243 169.867 29.0276 168.28 30.3787C166.704 31.7298 164.784 32.3828 162.521 32.3378C160.415 32.2927 158.738 31.6397 157.488 30.3787C156.238 29.1176 155.658 27.4907 155.748 25.4978L158.805 25.5147C158.738 26.7757 159.042 27.7947 159.717 28.5716C160.393 29.3372 161.372 29.7425 162.656 29.7876C164.097 29.8326 165.296 29.4216 166.253 28.5547C167.21 27.6877 167.756 26.528 167.891 25.0756C168.015 23.7358 167.711 22.6943 166.979 21.9512C166.248 21.1968 165.155 20.7971 163.703 20.7521L161.355 20.7352L161.761 18.185ZM177.45 19.6205L180.575 7.40992H192.836L192.38 10.2979H182.754L180.862 17.0196C182.101 16.2878 183.44 15.9331 184.882 15.9557C186.919 15.9782 188.484 16.7494 189.577 18.2694C190.669 19.7781 191.114 21.7035 190.911 24.0454C190.697 26.5674 189.802 28.5941 188.226 30.1253C186.649 31.6566 184.685 32.3997 182.331 32.3547C180.372 32.3321 178.79 31.7016 177.586 30.4631C176.381 29.2246 175.745 27.5751 175.677 25.5147H178.531C178.61 26.8658 178.993 27.9129 179.68 28.656C180.367 29.3991 181.296 29.7819 182.466 29.8045C183.908 29.8495 185.118 29.3372 186.098 28.2676C187.088 27.198 187.674 25.7962 187.854 24.0623C188.012 22.5423 187.747 21.2925 187.06 20.313C186.373 19.3221 185.366 18.8042 184.037 18.7592C183.215 18.7367 182.483 18.8605 181.842 19.1307C181.211 19.401 180.581 19.7894 179.95 20.2961L177.45 19.6205ZM196.467 19.6205L199.592 7.40992H211.853L211.397 10.2979H201.77L199.879 17.0196C201.117 16.2878 202.457 15.9331 203.898 15.9557C205.936 15.9782 207.501 16.7494 208.593 18.2694C209.686 19.7781 210.13 21.7035 209.928 24.0454C209.714 26.5674 208.819 28.5941 207.242 30.1253C205.666 31.6566 203.701 32.3997 201.348 32.3547C199.389 32.3321 197.807 31.7016 196.602 30.4631C195.398 29.2246 194.762 27.5751 194.694 25.5147H197.548C197.627 26.8658 198.01 27.9129 198.697 28.656C199.383 29.3991 200.312 29.7819 201.483 29.8045C202.924 29.8495 204.135 29.3372 205.114 28.2676C206.105 27.198 206.691 25.7962 206.871 24.0623C207.028 22.5423 206.764 21.2925 206.077 20.313C205.39 19.3221 204.382 18.8042 203.054 18.7592C202.232 18.7367 201.5 18.8605 200.858 19.1307C200.228 19.401 199.597 19.7894 198.967 20.2961L196.467 19.6205ZM220.23 22.8294H212.208L212.664 20.2792H220.686L220.23 22.8294ZM228.235 18.185L230.262 18.2019C231.748 18.2019 232.998 17.8134 234.011 17.0365C235.036 16.2484 235.621 15.1844 235.767 13.8446C235.914 12.5385 235.672 11.5139 235.041 10.7708C234.411 10.0164 233.493 9.62799 232.288 9.60547C231.005 9.58295 229.913 9.96013 229.012 10.737C228.122 11.5026 227.576 12.5385 227.374 13.8446L224.351 13.8614C224.542 11.8348 225.403 10.1909 226.935 8.92992C228.477 7.65763 230.312 7.03274 232.44 7.05526C234.501 7.1003 236.117 7.7477 237.287 8.99747C238.47 10.236 238.982 11.8742 238.824 13.9121C238.723 15.0718 238.278 16.1302 237.49 17.0872C236.702 18.0442 235.61 18.838 234.214 19.4685C235.328 19.9189 236.162 20.6338 236.713 21.6134C237.265 22.5817 237.496 23.7189 237.406 25.0249C237.226 27.243 236.342 29.0276 234.754 30.3787C233.178 31.7298 231.258 32.3828 228.995 32.3378C226.89 32.2927 225.212 31.6397 223.962 30.3787C222.712 29.1176 222.133 27.4907 222.223 25.4978L225.28 25.5147C225.212 26.7757 225.516 27.7947 226.192 28.5716C226.867 29.3372 227.847 29.7425 229.13 29.7876C230.571 29.8326 231.77 29.4216 232.728 28.5547C233.685 27.6877 234.231 26.528 234.366 25.0756C234.49 23.7358 234.186 22.6943 233.454 21.9512C232.722 21.1968 231.63 20.7971 230.177 20.7521L227.83 20.7352L228.235 18.185ZM259.581 9.33525L246.222 32H242.878L256.169 9.97702H243.334L243.739 7.40992H259.885L259.581 9.33525ZM267.687 22.8294H259.665L260.121 20.2792H268.143L267.687 22.8294ZM284.711 32H269.055L269.427 29.6187L278.496 20.8027L280.151 19.1645C282.054 17.2617 283.107 15.5053 283.309 13.8952C283.456 12.6567 283.214 11.649 282.583 10.8721C281.953 10.084 281.063 9.66739 279.915 9.62236C278.44 9.57732 277.207 10.0108 276.216 10.9228C275.225 11.8235 274.623 13.062 274.409 14.6383L271.386 14.6552C271.532 13.1465 271.994 11.8123 272.771 10.6526C273.559 9.48162 274.589 8.58651 275.861 7.96725C277.145 7.33674 278.536 7.03837 280.033 7.07215C282.071 7.11719 283.687 7.73644 284.88 8.92992C286.085 10.1121 286.603 11.649 286.434 13.5406C286.242 15.7023 284.998 17.9767 282.701 20.3636L281.148 21.9343L273.244 29.4498H285.117L284.711 32ZM295.655 32.3378C293.583 32.2927 292.03 31.5609 290.994 30.1422C289.958 28.7123 289.485 26.6575 289.575 23.9778C289.598 23.1446 289.66 22.3227 289.761 21.5121L290.369 17.4081C290.909 13.9065 291.94 11.2943 293.46 9.57169C294.98 7.84903 296.984 7.01585 299.472 7.07215C301.566 7.11719 303.126 7.83777 304.15 9.23391C305.186 10.6188 305.665 12.6342 305.586 15.2801C305.552 16.1245 305.484 16.9521 305.383 17.7628L304.792 21.7316C304.195 25.4359 303.142 28.1437 301.634 29.8551C300.125 31.5665 298.132 32.3941 295.655 32.3378ZM302.428 17.2054C302.585 15.8431 302.658 14.7847 302.647 14.0303C302.591 11.1705 301.482 9.70117 299.32 9.62236C297.744 9.56606 296.466 10.1515 295.486 11.3788C294.518 12.5948 293.842 14.5088 293.46 17.121L292.733 22.0187C292.576 23.3248 292.503 24.3888 292.514 25.2107C292.57 28.1944 293.674 29.7256 295.824 29.8045C297.321 29.872 298.554 29.3203 299.523 28.1494C300.502 26.9784 301.2 25.1206 301.617 22.5761L302.428 17.2054Z" fill="white"/>
<path d="M11.5182 67.8099H18.1723L17.6488 70.7654H11.0115L9.66039 78.5342H6.58663L7.93773 70.7654H1.28355L1.8071 67.8099H8.44439L9.69416 60.6321H12.7679L11.5182 67.8099ZM26.2114 67.185L28.2381 67.2019C29.7243 67.2019 30.974 66.8134 31.9874 66.0365C33.012 65.2484 33.5974 64.1844 33.7438 62.8446C33.8902 61.5385 33.6481 60.5139 33.0176 59.7708C32.3871 59.0164 31.4694 58.628 30.2647 58.6055C28.9812 58.5829 27.889 58.9601 26.9883 59.737C26.0988 60.5026 25.5527 61.5385 25.3501 62.8446L22.327 62.8614C22.5184 60.8348 23.3797 59.1909 24.911 57.9299C26.4535 56.6576 28.2887 56.0327 30.4167 56.0553C32.4771 56.1003 34.0928 56.7477 35.2638 57.9975C36.446 59.236 36.9583 60.8742 36.8007 62.9121C36.6993 64.0718 36.2546 65.1302 35.4665 66.0872C34.6783 67.0442 33.5862 67.838 32.19 68.4685C33.3047 68.9189 34.1379 69.6338 34.6896 70.6134C35.2413 71.5817 35.4721 72.7189 35.382 74.0249C35.2019 76.243 34.318 78.0276 32.7305 79.3787C31.1542 80.7298 29.2345 81.3828 26.9714 81.3378C24.8659 81.2927 23.1883 80.6397 21.9385 79.3787C20.6888 78.1176 20.1089 76.4907 20.199 74.4978L23.2559 74.5147C23.1883 75.7757 23.4923 76.7947 24.1679 77.5716C24.8434 78.3372 25.823 78.7425 27.1065 78.7876C28.5477 78.8326 29.7468 78.4216 30.7038 77.5547C31.6608 76.6877 32.2069 75.528 32.342 74.0756C32.4659 72.7358 32.1619 71.6943 31.43 70.9512C30.6982 70.1968 29.606 69.7971 28.1536 69.7521L25.8061 69.7352L26.2114 67.185ZM57.557 58.3352L44.198 81H40.854L54.1455 58.977H41.31L41.7153 56.4099H57.861L57.557 58.3352ZM60.9179 68.6205L64.0423 56.4099H76.3035L75.8475 59.2979H66.2209L64.3294 66.0196C65.5679 65.2878 66.9078 64.9331 68.3489 64.9557C70.3868 64.9782 71.9519 65.7494 73.044 67.2694C74.1362 68.7781 74.5809 70.7035 74.3782 73.0454C74.1643 75.5674 73.2692 77.5941 71.6929 79.1253C70.1166 80.6566 68.1519 81.3997 65.7987 81.3547C63.8396 81.3321 62.2577 80.7016 61.053 79.4631C59.8482 78.2246 59.2121 76.5751 59.1445 74.5147H61.9987C62.0776 75.8658 62.4604 76.9129 63.1472 77.656C63.834 78.3991 64.7629 78.7819 65.9338 78.8045C67.375 78.8495 68.5854 78.3372 69.5649 77.2676C70.5557 76.198 71.1412 74.7962 71.3214 73.0623C71.479 71.5423 71.2144 70.2925 70.5276 69.313C69.8408 68.3221 68.8331 67.8042 67.5045 67.7592C66.6826 67.7367 65.9507 67.8605 65.3089 68.1307C64.6784 68.401 64.0479 68.7894 63.4174 69.2961L60.9179 68.6205ZM86.9604 71.0863C87.3319 68.4854 88.0187 65.9521 89.0208 63.4863C90.0341 61.0206 91.2726 58.9207 92.7363 57.1868C94.2 55.4416 95.8326 54.1243 97.6341 53.2348L98.0901 55.329C96.3224 56.6464 94.8024 58.369 93.5301 60.497C92.2691 62.6137 91.2952 65.1358 90.6083 68.0632C89.9215 70.9793 89.5894 73.856 89.6119 76.6934C89.6119 79.024 89.9103 81.0732 90.507 82.8409C91.115 84.6198 91.9876 86.0216 93.1248 87.0462L92.3648 88.9377C90.4845 87.6317 89.0433 85.7007 88.0412 83.1449C87.0504 80.589 86.6001 77.6616 86.6901 74.3627C86.7127 73.2818 86.7915 72.2516 86.9266 71.2721L86.9604 71.0863ZM112.412 81H96.7559L97.1274 78.6187L106.197 69.8027L107.852 68.1645C109.755 66.2617 110.807 64.5053 111.01 62.8952C111.156 61.6567 110.914 60.649 110.284 59.8721C109.653 59.084 108.764 58.6674 107.615 58.6224C106.14 58.5773 104.908 59.0108 103.917 59.9228C102.926 60.8235 102.324 62.062 102.11 63.6383L99.0865 63.6552C99.2329 62.1465 99.6945 60.8123 100.471 59.6526C101.26 58.4816 102.29 57.5865 103.562 56.9673C104.846 56.3367 106.236 56.0384 107.734 56.0721C109.771 56.1172 111.387 56.7364 112.581 57.9299C113.785 59.1121 114.303 60.649 114.134 62.5406C113.943 64.7023 112.699 66.9767 110.402 69.3636L108.848 70.9343L100.944 78.4498H112.817L112.412 81ZM131.429 81H115.773L116.144 78.6187L125.213 69.8027L126.869 68.1645C128.771 66.2617 129.824 64.5053 130.027 62.8952C130.173 61.6567 129.931 60.649 129.301 59.8721C128.67 59.084 127.781 58.6674 126.632 58.6224C125.157 58.5773 123.924 59.0108 122.933 59.9228C121.943 60.8235 121.34 62.062 121.126 63.6383L118.103 63.6552C118.25 62.1465 118.711 60.8123 119.488 59.6526C120.276 58.4816 121.307 57.5865 122.579 56.9673C123.862 56.3367 125.253 56.0384 126.75 56.0721C128.788 56.1172 130.404 56.7364 131.597 57.9299C132.802 59.1121 133.32 60.649 133.151 62.5406C132.96 64.7023 131.716 66.9767 129.419 69.3636L127.865 70.9343L119.961 78.4498H131.834L131.429 81ZM150.445 81H134.789L135.161 78.6187L144.23 69.8027L145.885 68.1645C147.788 66.2617 148.841 64.5053 149.044 62.8952C149.19 61.6567 148.948 60.649 148.317 59.8721C147.687 59.084 146.797 58.6674 145.649 58.6224C144.174 58.5773 142.941 59.0108 141.95 59.9228C140.959 60.8235 140.357 62.062 140.143 63.6383L137.12 63.6552C137.266 62.1465 137.728 60.8123 138.505 59.6526C139.293 58.4816 140.323 57.5865 141.596 56.9673C142.879 56.3367 144.27 56.0384 145.767 56.0721C147.805 56.1172 149.421 56.7364 150.614 57.9299C151.819 59.1121 152.337 60.649 152.168 62.5406C151.977 64.7023 150.732 66.9767 148.436 69.3636L146.882 70.9343L138.978 78.4498H150.851L150.445 81ZM162.656 71.1201C162.262 73.8673 161.547 76.4682 160.511 78.9227C159.475 81.3659 158.231 83.4264 156.779 85.104C155.337 86.7929 153.739 88.0764 151.982 88.9546L151.509 87.0124C155.371 84.1075 157.95 79.4406 159.244 73.0116C159.762 70.422 160.01 67.9281 159.987 65.5299C159.931 60.6997 158.76 57.2375 156.475 55.1433L157.268 53.2517C158.529 54.1299 159.593 55.3009 160.46 56.7646C161.339 58.217 161.98 59.9115 162.386 61.8481C162.802 63.7734 162.988 65.7719 162.943 67.8436C162.909 68.9358 162.825 69.966 162.69 70.9343L162.656 71.1201ZM189.796 81H174.14L174.512 78.6187L183.581 69.8027L185.236 68.1645C187.139 66.2617 188.192 64.5053 188.394 62.8952C188.541 61.6567 188.299 60.649 187.668 59.8721C187.038 59.084 186.148 58.6674 185 58.6224C183.525 58.5773 182.292 59.0108 181.301 59.9228C180.31 60.8235 179.708 62.062 179.494 63.6383L176.471 63.6552C176.617 62.1465 177.079 60.8123 177.856 59.6526C178.644 58.4816 179.674 57.5865 180.946 56.9673C182.23 56.3367 183.621 56.0384 185.118 56.0721C187.156 56.1172 188.772 56.7364 189.965 57.9299C191.17 59.1121 191.688 60.649 191.519 62.5406C191.327 64.7023 190.083 66.9767 187.786 69.3636L186.233 70.9343L178.329 78.4498H190.202L189.796 81ZM196.467 68.6205L199.592 56.4099H211.853L211.397 59.2979H201.77L199.879 66.0196C201.117 65.2878 202.457 64.9331 203.898 64.9557C205.936 64.9782 207.501 65.7494 208.593 67.2694C209.686 68.7781 210.13 70.7035 209.928 73.0454C209.714 75.5674 208.819 77.5941 207.242 79.1253C205.666 80.6566 203.701 81.3997 201.348 81.3547C199.389 81.3321 197.807 80.7016 196.602 79.4631C195.398 78.2246 194.762 76.5751 194.694 74.5147H197.548C197.627 75.8658 198.01 76.9129 198.697 77.656C199.383 78.3991 200.312 78.7819 201.483 78.8045C202.924 78.8495 204.135 78.3372 205.114 77.2676C206.105 76.198 206.691 74.7962 206.871 73.0623C207.028 71.5423 206.764 70.2925 206.077 69.313C205.39 68.3221 204.382 67.8042 203.054 67.7592C202.232 67.7367 201.5 67.8605 200.858 68.1307C200.228 68.401 199.597 68.7894 198.967 69.2961L196.467 68.6205ZM220.23 71.8294H212.208L212.664 69.2792H220.686L220.23 71.8294ZM228.235 67.185L230.262 67.2019C231.748 67.2019 232.998 66.8134 234.011 66.0365C235.036 65.2484 235.621 64.1844 235.767 62.8446C235.914 61.5385 235.672 60.5139 235.041 59.7708C234.411 59.0164 233.493 58.628 232.288 58.6055C231.005 58.5829 229.913 58.9601 229.012 59.737C228.122 60.5026 227.576 61.5385 227.374 62.8446L224.351 62.8614C224.542 60.8348 225.403 59.1909 226.935 57.9299C228.477 56.6576 230.312 56.0327 232.44 56.0553C234.501 56.1003 236.117 56.7477 237.287 57.9975C238.47 59.236 238.982 60.8742 238.824 62.9121C238.723 64.0718 238.278 65.1302 237.49 66.0872C236.702 67.0442 235.61 67.838 234.214 68.4685C235.328 68.9189 236.162 69.6338 236.713 70.6134C237.265 71.5817 237.496 72.7189 237.406 74.0249C237.226 76.243 236.342 78.0276 234.754 79.3787C233.178 80.7298 231.258 81.3828 228.995 81.3378C226.89 81.2927 225.212 80.6397 223.962 79.3787C222.712 78.1176 222.133 76.4907 222.223 74.4978L225.28 74.5147C225.212 75.7757 225.516 76.7947 226.192 77.5716C226.867 78.3372 227.847 78.7425 229.13 78.7876C230.571 78.8326 231.77 78.4216 232.728 77.5547C233.685 76.6877 234.231 75.528 234.366 74.0756C234.49 72.7358 234.186 71.6943 233.454 70.9512C232.722 70.1968 231.63 69.7971 230.177 69.7521L227.83 69.7352L228.235 67.185ZM259.581 58.3352L246.222 81H242.878L256.169 58.977H243.334L243.739 56.4099H259.885L259.581 58.3352ZM267.687 71.8294H259.665L260.121 69.2792H268.143L267.687 71.8294ZM284.711 81H269.055L269.427 78.6187L278.496 69.8027L280.151 68.1645C282.054 66.2617 283.107 64.5053 283.309 62.8952C283.456 61.6567 283.214 60.649 282.583 59.8721C281.953 59.084 281.063 58.6674 279.915 58.6224C278.44 58.5773 277.207 59.0108 276.216 59.9228C275.225 60.8235 274.623 62.062 274.409 63.6383L271.386 63.6552C271.532 62.1465 271.994 60.8123 272.771 59.6526C273.559 58.4816 274.589 57.5865 275.861 56.9673C277.145 56.3367 278.536 56.0384 280.033 56.0721C282.071 56.1172 283.687 56.7364 284.88 57.9299C286.085 59.1121 286.603 60.649 286.434 62.5406C286.242 64.7023 284.998 66.9767 282.701 69.3636L281.148 70.9343L273.244 78.4498H285.117L284.711 81ZM295.655 81.3378C293.583 81.2927 292.03 80.5609 290.994 79.1422C289.958 77.7123 289.485 75.6575 289.575 72.9778C289.598 72.1446 289.66 71.3227 289.761 70.5121L290.369 66.4081C290.909 62.9065 291.94 60.2943 293.46 58.5717C294.98 56.849 296.984 56.0159 299.472 56.0721C301.566 56.1172 303.126 56.8378 304.15 58.2339C305.186 59.6188 305.665 61.6342 305.586 64.2801C305.552 65.1245 305.484 65.9521 305.383 66.7628L304.792 70.7316C304.195 74.4359 303.142 77.1437 301.634 78.8551C300.125 80.5665 298.132 81.3941 295.655 81.3378ZM302.428 66.2054C302.585 64.8431 302.658 63.7847 302.647 63.0303C302.591 60.1705 301.482 58.7012 299.32 58.6224C297.744 58.5661 296.466 59.1515 295.486 60.3788C294.518 61.5948 293.842 63.5088 293.46 66.121L292.733 71.0187C292.576 72.3248 292.503 73.3888 292.514 74.2107C292.57 77.1944 293.674 78.7256 295.824 78.8045C297.321 78.872 298.554 78.3203 299.523 77.1494C300.502 75.9784 301.2 74.1206 301.617 71.5761L302.428 66.2054Z" fill="white"/>
</svg>
